<?xml version="1.0" standalone="no"?>
<!DOCTYPE svg PUBLIC "-//W3C//DTD SVG 1.1//EN" "http://www.w3.org/Graphics/SVG/1.1/DTD/svg11.dtd" >
<svg>
<metadata>
Created by FontForge 20090914 at Sat Oct 22 13:03:38 2016
 By www-data
Copyright (c) 2009 by Peter Wiegel Licensed under Creative Commons Attribution 3.0 Germany, This Font is "E-Mail-Ware" Please mail your comment or donate via PayPal to wiegel@peter-wiegel.de 
</metadata>
<defs>
<font id="BerlinEmail" horiz-adv-x="300" >
  <font-face 
    font-family="Berlin Email"
    font-weight="400"
    font-stretch="normal"
    units-per-em="1000"
    panose-1="2 11 6 3 2 2 2 2 2 4"
    ascent="800"
    descent="-200"
    x-height="518"
    cap-height="777"
    bbox="-97 -166 828 976"
    underline-thickness="0"
    underline-position="0"
    unicode-range="U+0020-U+2122"
  />
<missing-glyph horiz-adv-x="372" 
 />
    <glyph glyph-name=".notdef" horiz-adv-x="372" 
 />
    <glyph glyph-name="space" unicode=" " horiz-adv-x="213" 
 />
    <glyph glyph-name="exclam" unicode="!" horiz-adv-x="150" 
d="M65 65v-65h-65v65h65zM65 777v-154l-17 -461h-32l-16 461v154h65z" />
    <glyph glyph-name="quotedbl" unicode="&#x22;" horiz-adv-x="279" 
d="M197 841v-96l-65 -65v161h65zM65 841v-96l-65 -65v161h65z" />
    <glyph glyph-name="numbersign" unicode="#" 
d="M116 324l41.001 129h-92v-453h-65v666c0 30 11 56.667 33 80c22.667 22 49.334 33 80.001 33c16 0 30.667 -3 44 -9c2.66699 -1.33301 5 -2.33301 7 -3c12 -8 21.667 -15 29 -21l-46 -46c-3.33301 2.66699 -7.33301 5.66699 -12 9h-3v1c-4.66699 2.66699 -11 4 -19 4
c-13.333 0 -24.666 -4.66699 -33.999 -14s-14 -20.666 -14 -33.999v-148h164v-65h-4l-46 -148l10.5 -9c3 -2.66699 5.16699 -4.66699 6.5 -6c22 -22 33 -48.667 33 -80v-225c0 -31.333 -11 -58 -33 -80s-48.667 -33 -80 -33c-16.667 0 -31.334 3 -44.001 9
c-2.66699 1.33301 -5 2.33301 -7 3c-12.667 5.33301 -22.334 12.333 -29.001 21l45 46c3.33301 -4 7.66602 -7.33301 12.999 -10c0.666992 0 1.16699 -0.166992 1.5 -0.5s0.833008 -0.5 1.5 -0.5c7.33301 -2.66699 13.666 -4 18.999 -4c12.667 0 24 5 34 15
c9.33301 9.33301 14 20.666 14 33.999v225c0 14 -4.66699 25.667 -14 35c-11.333 9.33301 -22.666 14 -33.999 14v65z" />
    <glyph glyph-name="dollar" unicode="$" 
d="M162 404c0 13.333 -5 24.999 -15 34.999c-9.33301 9.33301 -20.666 14 -33.999 14s-24.666 -4.66699 -33.999 -14s-14 -21 -14 -35v-24c0 -10 6.33301 -22.333 19 -37l8.5 -8.5c2.33301 -2.33301 4.16602 -4.5 5.49902 -6.5l80 -97
c0.666992 -3.33301 2.66699 -5.33301 6 -6c8.66699 -10.667 15.834 -20.167 21.501 -28.5s9.83398 -15.5 12.501 -21.5c6 -11.333 9 -32 9 -62c0 -30.667 -11.333 -57.334 -34 -80.001c-22 -22 -48.667 -33 -80 -33c-30.667 0 -57.334 11 -80.001 33
c-22 22.667 -33 49.334 -33 80.001v49h65v-49c0 -13.333 4.66699 -24.666 14 -33.999s20.666 -14 33.999 -14s24.666 4.66699 33.999 14c10 10 15 21.333 15 34c0 18.667 -2 31.667 -6 39c-2.66699 6 -10 16.667 -22 32c-2 0.666992 -3.66699 2.66699 -5 6l-81 97
c-2 2 -4 4.16699 -6 6.5s-4 4.5 -6 6.5c-10.667 11.333 -19.334 22.5 -26.001 33.5s-10 26.5 -10 46.5v24c0 31.333 11 58 33 80c22.667 22.667 49.334 34 80.001 34c31.333 0 58 -11.333 80 -34c22.667 -22 34 -48.667 34 -80v-48h-65v48z" />
    <glyph glyph-name="uni0025" unicode="%" horiz-adv-x="612" 
d="M114 779c31.333 0 58 -11.333 80 -34c22.667 -22 34 -48.667 34 -80v-73c0 -30.667 -11.333 -57.334 -34 -80.001c-22 -22 -48.667 -33 -80 -33c-30.667 0 -57.334 11 -80.001 33c-22 22.667 -33 49.334 -33 80.001v73c0 31.333 11 58 33 80
c22.667 22.667 49.334 34 80.001 34zM114 714c-13.333 0 -24.666 -4.66797 -33.999 -14.001s-14 -21 -14 -35v-73c0 -13.333 4.66699 -24.666 14 -33.999s20.666 -14 33.999 -14s24.666 4.66699 33.999 14c10 10 15 21.333 15 34v73c0 13.333 -5 25 -15 35
c-9.33301 9.33301 -20.666 14 -33.999 14zM85 -0.000976562h-85l455 777h85zM434 299.999c31.333 0 58 -11.333 80 -34c22.667 -22 34 -48.667 34 -80v-73c0 -30.667 -11.333 -57.334 -34 -80.001c-22 -22 -48.667 -33 -80 -33c-30.667 0 -57.334 11 -80.001 33
c-22 22.667 -33 49.334 -33 80.001v73c0 31.333 11 58 33 80c22.667 22.667 49.334 34 80.001 34zM434 234.999c-13.333 0 -24.666 -4.66797 -33.999 -14.001s-14 -21 -14 -35v-73c0 -13.333 4.66699 -24.666 14 -33.999s20.666 -14 33.999 -14s24.666 4.66699 33.999 14
c10 10 15 21.333 15 34v73c0 13.333 -5 25 -15 35c-9.33301 9.33301 -20.666 14 -33.999 14z" />
    <glyph glyph-name="ampersand" unicode="&#x26;" horiz-adv-x="369" 
d="M113 259c-8.66699 0 -14.0029 0.331055 -16.0029 0.998047c-9.33301 -1.33301 -17 -5 -23 -11s-9 -13.333 -9 -22v-130c0 -9.33301 3 -17 9 -23s13.667 -9 23 -9s17 3 23 9s9 13.667 9 23v65h-32v65h130v-65h-33v-65c0 -8.66699 3.33301 -16.334 10 -23.001
c6 -6 13.667 -9 23 -9c4.66699 0 10.334 1.66699 17.001 5c0 0.666992 0.333008 1 1 1s1.33398 0.333008 2.00098 1l2 2l46 -45c-0.666992 -1.33301 -3.33398 -3.66602 -8.00098 -6.99902c-4 -4 -6.66699 -6.33301 -8 -7c-17.333 -10 -34.666 -15 -51.999 -15
c-26.667 0 -48.334 8.33301 -65.001 25c-17.333 -16.667 -39 -25 -65 -25c-26.667 0 -49.667 9.66699 -69 29c-18.667 18.667 -28 41.334 -28 68.001v130c0 26.667 9.33301 49.334 28 68.001l1 1c-19.333 21.333 -29 46.666 -29 75.999v32c0 31.333 11 58 33 80
c22.667 22.667 49.334 34 80.001 34c31.333 0 58 -11.333 80 -34c22.667 -22 34 -48.667 34 -80v-32h-65v32c0 13.333 -5 25 -15 35c-9.33301 9.33301 -20.666 14 -33.999 14s-24.666 -4.66699 -33.999 -14s-14 -21 -14 -35v-32c0 -13.333 4.66699 -24.666 14 -33.999
s20.666 -14 33.999 -14v-65z" />
    <glyph glyph-name="quotesingle" unicode="'" horiz-adv-x="171" 
d="M65 841v-96l-65 -65v161h65z" />
    <glyph glyph-name="parenleft" unicode="(" horiz-adv-x="172" 
d="M113 841c-16.667 -57.333 -29.002 -127.334 -37.002 -210.001c-8 -80 -12 -162.333 -12 -247s4 -166.334 12 -245.001c4.66699 -40 10 -76.833 16 -110.5s13 -64.5 21 -92.5h-29c-18.667 40.667 -34.167 85.334 -46.5 134.001s-21.666 99.5 -27.999 152.5
s-9.5 107.167 -9.5 162.5s3.16699 109.833 9.5 163.5s15.833 105.334 28.5 155.001s28.334 95.5 47.001 137.5h28z" />
    <glyph glyph-name="parenright" unicode=")" horiz-adv-x="188" 
d="M0 841l28 0.00195312c19.333 -42.667 35.333 -88.834 48 -138.501s22 -101.334 28 -155.001s9 -108 9 -163s-3.16699 -109 -9.5 -162s-15.833 -103.833 -28.5 -152.5s-28 -93.334 -46 -134.001h-29c16 56 28 123.667 36 203c8 78.667 12 160.334 12 245.001
s-4 167 -12 247c-8 80.667 -20 150.667 -36 210z" />
    <glyph glyph-name="asterisk" unicode="*" 
d="M143 608l-30 50l-29 -50l-55 32l29 50h-58v65h57l-28 49l55 33l29 -51l30 51l55 -32l-29 -50h58v-65h-58l29 -49z" />
    <glyph glyph-name="plus" unicode="+" 
d="M0 518h81v81h65v-81h81v-65h-81v-81h-65v81h-81v65z" />
    <glyph glyph-name="comma" unicode="," horiz-adv-x="162" 
d="M65 65v-96l-65 -65v161h65z" />
    <glyph glyph-name="hyphen" unicode="-" 
d="M0 518h227v-65h-227v65z" />
    <glyph glyph-name="period" unicode="." horiz-adv-x="161" 
d="M65 65v-65h-65v65h65z" />
    <glyph glyph-name="slash" unicode="/" horiz-adv-x="310" 
d="M65 -65h-65l185 907h63z" />
    <glyph glyph-name="zero" unicode="0" 
d="M97 777l32 -0.000976562c26.667 0 49.667 -9.66699 69 -29s29 -42 29 -68v-583c0 -27.333 -9.66699 -50 -29 -68c-19.333 -19.333 -42.333 -29 -69 -29h-32c-26.667 0 -49.667 9.66699 -69 29c-18.667 18.667 -28 41.334 -28 68.001v583c-0 26 9.33301 48.667 28 68
c19.333 19.333 42.333 29 69 29zM129 711.999l-31.998 -0.000976562c-8.66699 0 -16.334 -3.33301 -23.001 -10c-6 -6 -9 -13.333 -9 -22v-583c0 -9.33301 3 -17 9 -23s13.667 -9 23 -9h32c9.33301 0 17 3 23 9c6.66699 6.66699 10 14.334 10 23.001v583
c0 8 -3.33301 15.333 -10 22s-14.334 10 -23.001 10z" />
    <glyph glyph-name="one" unicode="1" horiz-adv-x="209" 
d="M0 717l69 60h44v-777h-65v674l-48 -42v85z" />
    <glyph glyph-name="two" unicode="2" 
d="M33 486c-0.666992 1.33301 -3.33496 4.33301 -8.00195 9c0.666992 -0.666992 0.333984 -0.166992 -0.999023 1.5s-3.33301 4.5 -6 8.5c-12 18.667 -18 39 -18 61v97c0 16 3 30.667 9 44c1.33301 2.66699 2.33301 5 3 7c4 9.33301 11 19 21 29
c22.667 22.667 49.334 34 80.001 34c13.333 0 28 -3 44 -9c2.66699 -2 5 -3 7 -3c13.333 -8 23 -15.333 29 -22c4 -4 6.66699 -7 8 -9c2.66699 -2.66699 5 -6 7 -10c12.667 -17.333 19 -37.666 19 -60.999v-97c0 -4 -0.5 -7.83301 -1.5 -11.5s-1.5 -7.5 -1.5 -11.5
c-2 -7.33301 -4 -13.333 -6 -18l-151 -460h160v-65h-227v68l157 477c0 0.666992 0.333008 1.66699 1 3s1 2.66602 1 3.99902s0.666992 3 2 5c0 1.33301 0.166992 2.66602 0.5 3.99902s0.5 3 0.5 5v97c0 8.66699 -2.66699 17.334 -8 26.001c-2 2 -3 3.66699 -3 5
c-2 0 -3.33301 1.33301 -4 4l-12 9h-3v1c-4.66699 2.66699 -11 4 -19 4c-12 0 -23.333 -4.66699 -34 -14c-5.33301 -5.33301 -8.33301 -9.66602 -9 -12.999c-0.666992 -0.666992 -1 -1.16699 -1 -1.5s-0.333008 -0.833008 -1 -1.5c-2 -6 -3 -12.333 -3 -19v-97
c0 -10.667 2.33301 -19.334 7 -26.001c0 -2.66699 1 -4 3 -4c0 -2 1.33301 -3.33301 4 -4z" />
    <glyph glyph-name="three" unicode="3" 
d="M65 194l0.00195312 -81.002c0 -13.333 4.66699 -24.666 14 -33.999s20.666 -14 33.999 -14s24.666 4.66699 33.999 14c10 10 15 21.333 15 34v291c0 13.333 -5 25 -15 35c-9.33301 9.33301 -20.666 14 -33.999 14h-48l18 44l74 215h-157v65h227v-67l-69 -201
c15.333 -7.33301 27 -15.666 35 -24.999c22.667 -22 34 -48.667 34 -80v-291c0 -30.667 -11.333 -57.334 -34 -80.001c-22 -22 -48.667 -33 -80 -33c-30.667 0 -57.334 11 -80.001 33c-22 22.667 -33 49.334 -33 80.001v81h65z" />
    <glyph glyph-name="four" unicode="4" 
d="M162 291v-64h65v-65h-65v-162h-65v162h-97v79l61 536h65l-63 -550h34v64h65z" />
    <glyph glyph-name="five" unicode="5" 
d="M65 194l0.00195312 -81.001c0 -13.333 4.66699 -24.666 14 -33.999s20.666 -14 33.999 -14s24.666 4.66699 33.999 14c10 10 15 21.333 15 34v291c0 13.333 -5 25 -15 35c-9.33301 9.33301 -20.666 14 -33.999 14h-113v324h227v-65h-162v-194h48
c31.333 0 58 -11.333 80 -34c22.667 -22 34 -48.667 34 -80v-291c0 -30.667 -11.333 -57.334 -34 -80.001c-22 -22 -48.667 -33 -80 -33c-30.667 0 -57.334 11 -80.001 33c-22 22.667 -33 49.334 -33 80.001v81h65z" />
    <glyph glyph-name="six" unicode="6" 
d="M227 113c0 -30.667 -11.333 -57.334 -34 -80.001c-22 -22 -48.667 -33 -80 -33c-30.667 0 -57.334 11 -80.001 33c-22 22.667 -33 49.334 -33 80.001v550c0 31.333 11 58 33 80c22.667 22.667 49.334 34 80.001 34c13.333 0 28 -3 44 -9c2.66699 -2 5 -3 7 -3
c13.333 -8 23 -15.333 29 -22l-46 -45l-12 9h-3v1c-4.66699 2.66699 -11 4 -19 4c-12 0 -23.333 -4.66699 -34 -14c-9.33301 -9.33301 -14 -21 -14 -35v-156c16 7.33301 32 11 48 11c31.333 0 58 -11.333 80 -34c22.667 -22 34 -48.667 34 -80v-291zM65 404v-291.001
c0 -13.333 4.66699 -24.666 14 -33.999s20.666 -14 33.999 -14s24.666 4.66699 33.999 14c10 10 15 21.333 15 34v291c0 13.333 -5 25 -15 35c-9.33301 9.33301 -20.666 14 -33.999 14s-24.666 -4.66699 -33.999 -14s-14 -21 -14 -35z" />
    <glyph glyph-name="seven" unicode="7" 
d="M0 647l-0.000976562 130.001h227v-65c0 -38 -3 -70.333 -9 -97c-3.33301 -13.333 -6.66602 -28.833 -9.99902 -46.5l-11 -59.5c-6 -32 -12 -65.833 -18 -101.5s-11.667 -73.834 -17 -114.501s-9.33301 -85.334 -12 -134.001s-4 -101.667 -4 -159h-65
c0 58.667 1.5 112.834 4.5 162.501s7.16699 95.5 12.5 137.5s11 81.333 17 118s12 71 18 103l17 99c5.33301 31.333 9 62 11 92h-96v-65h-65z" />
    <glyph glyph-name="eight" unicode="8" 
d="M113 777c31.333 0 57.999 -11.334 79.999 -34.001c22.667 -22 34 -48.667 34 -80v-97c0 -28.667 -10 -54 -30 -76l1 -1c19.333 -19.333 29 -42 29 -68v-324c0 -27.333 -9.66699 -50 -29 -68c-19.333 -19.333 -42.333 -29 -69 -29h-32c-26.667 0 -49.667 9.66699 -69 29
c-18.667 18.667 -28 41.334 -28 68.001v324c0 26.667 9.33301 49.334 28 68.001l1 1c-19.333 21.333 -29 46.666 -29 75.999v97c0 31.333 11 58 33 80c22.667 22.667 49.334 34 80.001 34zM112.999 452.999l-15.999 -0.00195312c-8.66699 0 -16.334 -3 -23.001 -9
c-6 -6 -9 -13.667 -9 -23v-324c0 -9.33301 3 -17 9 -23s13.667 -9 23 -9h32c9.33301 0 17 3 23 9c6.66699 6.66699 10 14.334 10 23.001v324c0 8.66699 -3.33301 16.334 -10 23.001c-7.33301 6 -15 9 -23 9h-16zM113 711.997c-12 0 -23.332 -4.66797 -33.999 -14.001
c-9.33301 -9.33301 -14 -21 -14 -35v-97c0 -13.333 4.66699 -24.666 14 -33.999s20.666 -14 33.999 -14s24.666 4.66699 33.999 14c10 10 15 21.333 15 34v97c0 13.333 -5 25 -15 35c-9.33301 9.33301 -20.666 14 -33.999 14z" />
    <glyph glyph-name="nine" unicode="9" 
d="M0 663c0 31.333 11.001 58 33.001 80c22.667 22.667 49.334 34 80.001 34c31.333 0 58 -11.333 80 -34c22.667 -22 34 -48.667 34 -80v-550c0 -30.667 -11.333 -57.334 -34 -80.001c-22 -22 -48.667 -33 -80 -33c-15.333 0 -30 3 -44 9
c-3.33301 0.666992 -5.33301 1.66699 -6 3c-11.333 6 -21.333 13 -30 21l46 46c4 -5.33301 8.33301 -8.33301 13 -9l2 -2c6 -2 12.333 -3 19 -3c13.333 0 24.666 4.66699 33.999 14c10 10 15 21.333 15 34v157c-16.667 -7.33301 -33 -11 -49 -11
c-30.667 0 -57.334 11 -80.001 33c-22 22.667 -33 49.334 -33 80.001v291zM162.001 372l0.000976562 290.999c0 13.333 -5 25 -15 35c-9.33301 9.33301 -20.666 14 -33.999 14c-12 0 -23.333 -4.66699 -34 -14c-9.33301 -9.33301 -14 -21 -14 -35v-291
c0 -13.333 4.66699 -24.666 14 -33.999s20.666 -14 33.999 -14s24.666 4.66699 33.999 14c10 10 15 21.333 15 34z" />
    <glyph glyph-name="colon" unicode=":" horiz-adv-x="142" 
d="M65 227v-65h-65v65h65zM65 65v-65h-65v65h65z" />
    <glyph glyph-name="semicolon" unicode=";" horiz-adv-x="155" 
d="M65 65v-96l-65 -65v161h65zM65 227v-65h-65v65h65z" />
    <glyph glyph-name="equal" unicode="=" 
d="M0 518h194v-65h-194v65zM0 388h194v-64h-194v64z" />
    <glyph glyph-name="greater" unicode="&#x3e;" 
d="M113 324l41.001 129h-154v65h227v-65h-5l-46 -148c8.66699 -8.66699 14.334 -13.667 17.001 -15c22.667 -22 34 -48.667 34 -80v-225c0 -31.333 -11.333 -58 -34 -80c-21.333 -22 -48 -33 -80 -33c-15.333 0 -30 3 -44 9c-3.33301 0.666992 -5.33301 1.66699 -6 3
c-11.333 4.66699 -21.333 11.667 -30 21l46 46c3.33301 -4 7.66602 -7.33301 12.999 -10l2 -1c7.33301 -2.66699 13.666 -4 18.999 -4c13.333 0 24.666 5 33.999 15c10 8.66699 15 20 15 34v225c0 13.333 -5 25 -15 35c-9.33301 9.33301 -20.666 14 -33.999 14v65z" />
    <glyph glyph-name="question" unicode="?" horiz-adv-x="0" 
d="M0 566l-0.00292969 97c0 31.333 11 58 33 80c22.667 22.667 49.334 34 80.001 34c31.333 0 58 -11.333 80 -34c22.667 -22 34 -48.667 34 -80v-224c0 -16 -3.33301 -30.667 -10 -44c-1.33301 -5.33301 -2 -7.66602 -2 -6.99902c-6.66699 -12 -14 -21.667 -22 -29l-33 -33
c-4 -4 -7 -8.33301 -9 -13l-1 -3c-2.66699 -4.66699 -4 -11 -4 -19v-129h-65v129c0 16 3 30.667 9 44c1.33301 2.66699 2.33301 5 3 7c6.66699 12 13.667 21.667 21 29l33 33v1c0.666992 0.666992 1.83398 2 3.50098 4l6.5 8v2c0 0.666992 0.333008 1 1 1
c2.66699 7.33301 4 13.666 4 18.999v224c0 13.333 -5 25 -15 35c-9.33301 9.33301 -20.666 14 -33.999 14c-12 0 -23.333 -4.66699 -34 -14c-9.33301 -9.33301 -14 -21 -14 -35v-97h-65zM145.997 65v-65h-65v65h65z" />
    <glyph glyph-name="at" unicode="@" horiz-adv-x="543" 
d="M417 680c0 8 -3.33203 15.3311 -9.99902 21.998s-14.334 10 -23.001 10h-287c-8.66699 0 -16.334 -3.33301 -23.001 -10c-6 -6 -9 -13.333 -9 -22v-583c0 -9.33301 3 -17 9 -23s13.667 -9 23 -9h391v-65h-391c-26.667 0 -49.667 9.66699 -69 29
c-18.667 18.667 -28 41.334 -28 68.001v583c0 26 9.33301 48.667 28 68c19.333 19.333 42.333 29 69 29h287c26.667 0 49.667 -9.66699 69 -29s29 -42 29 -68v-547h-192v14c-16.667 -7.33301 -33 -11 -49 -11c-30.667 0 -57.334 11 -80.001 33
c-22 22.667 -33 49.334 -33 80.001c0 76.667 14 130.667 42 162c29.333 32.667 67.666 64.667 114.999 96h2l3 2v31c0 13.333 -5 25 -15 35c-9.33301 9.33301 -20.666 14 -33.999 14s-24.666 -4.66699 -33.999 -14s-14 -21 -14 -35h-65c0 31.333 11 58 33 80
c22.667 22.667 49.334 34 80.001 34c31.333 0 58 -11.333 80 -34c22.667 -22 34 -48.667 34 -80v-342h62v482zM290.001 430.998c-30.667 -21.333 -54.3311 -44.334 -70.998 -69.001c-17.333 -25.333 -26 -63 -26 -113c0 -13.333 4.66699 -24.666 14 -33.999
s20.666 -14 33.999 -14s24.666 4.66699 33.999 14c10 10 15 21.333 15 34v182z" />
    <glyph glyph-name="A" unicode="A" 
d="M0 0l55 777h159l28 -777h-65l-6 163h-94l-12 -163h-65zM169 228l-18 484h-35l-35 -484h88z" />
    <glyph glyph-name="B" unicode="B" 
d="M129 453c8.66699 0 16.334 3.33301 23.001 10c6.66699 4.66699 10 12 10 22v195c0 8 -3.33301 15.333 -10 22s-14.334 10 -23.001 10h-64v-259h64zM65 388v-323.002h64c9.33301 0 17 3 23 9c6.66699 6.66699 10 14.334 10 23.001v259
c0 8.66699 -3.33301 16.334 -10 23.001c-6 6 -13.667 9 -23 9h-64zM227 484.998c0 -24 -8.33301 -45.332 -25 -63.999c16.667 -18.667 25 -40.334 25 -65.001v-259c0 -27.333 -9.66699 -50 -29 -68c-19.333 -19.333 -42.333 -29 -69 -29h-129v777h129
c26.667 0 49.667 -9.66699 69 -29s29 -42 29 -68v-195z" />
    <glyph glyph-name="C" unicode="C" 
d="M113 777c31.333 0 58.001 -11.334 80.001 -34.001c22.667 -22 34 -48.667 34 -80v-48h-65v48c0 13.333 -5 25 -15 35c-9.33301 9.33301 -20.666 14 -33.999 14c-12 0 -23.333 -4.66699 -34 -14c-9.33301 -9.33301 -14 -21 -14 -35v-550
c0 -13.333 4.66699 -24.666 14 -33.999s20.666 -14 33.999 -14s24.666 4.66699 33.999 14c10 10 15 21.333 15 34v49h65v-49c0 -30.667 -11.333 -57.334 -34 -80.001c-22 -22 -48.667 -33 -80 -33c-30.667 0 -57.334 11 -80.001 33c-22 22.667 -33 49.334 -33 80.001v550
c0 31.333 11 58 33 80c22.667 22.667 49.334 34 80.001 34z" />
    <glyph glyph-name="D" unicode="D" 
d="M65 65l64.001 -0.000976562c9.33301 0 17 3 23 9c6.66699 6.66699 10 14.334 10 23.001v583c0 8 -3.33301 15.333 -10 22s-14.334 10 -23.001 10h-64v-647zM129.001 -0.000976562h-129v777h129c26.667 0 49.667 -9.66699 69 -29s29 -42 29 -68v-583
c0 -27.333 -9.66699 -50 -29 -68c-19.333 -19.333 -42.333 -29 -69 -29z" />
    <glyph glyph-name="E" unicode="E" 
d="M65 453h129v-65h-129v-323h162v-65h-227v777h227v-65h-162v-259z" />
    <glyph glyph-name="F" unicode="F" 
d="M65 453h129v-65h-129v-388h-65v777h227v-65h-162v-259z" />
    <glyph glyph-name="G" unicode="G" 
d="M113 777c31.333 0 58.001 -11.335 80.001 -34.002c22.667 -22 34 -48.667 34 -80v-48h-65v48c0 13.333 -5 25 -15 35c-9.33301 9.33301 -20.666 14 -33.999 14c-12 0 -23.333 -4.66699 -34 -14c-9.33301 -9.33301 -14 -21 -14 -35v-550
c0 -13.333 4.66699 -24.666 14 -33.999s20.666 -14 33.999 -14s24.666 4.66699 33.999 14c10 10 15 21.333 15 34v275h-65v65h130v-453h-65v11c-16.667 -7.33301 -33 -11 -49 -11c-30.667 0 -57.334 11 -80.001 33c-22 22.667 -33 49.334 -33 80.001v550
c0 31.333 11 58 33 80c22.667 22.667 49.334 34 80.001 34z" />
    <glyph glyph-name="H" unicode="H" 
d="M227 777v-777h-65v388h-97v-388h-65v777h65v-324h97v324h65z" />
    <glyph glyph-name="I" unicode="I" horiz-adv-x="247" 
d="M166 777l0.000976562 -680.001c0 -27.333 -9.66699 -50 -29 -68c-19.333 -19.333 -42 -29 -68 -29c-11.333 0 -24 2.66699 -38 8c-1.33301 0 -2.33301 0.166992 -3 0.5s-1.33398 0.5 -2.00098 0.5s-1 0.333008 -1 1c-12.667 6.66699 -21 13 -25 19l46 45l8 -6l2 -1
c6.66699 -1.33301 11 -2 13 -2c8.66699 0 16 3 22 9c6.66699 6.66699 10 14.334 10 23.001v680h65z" />
    <glyph glyph-name="J" unicode="J" 
d="M162 712l-161.997 -0.000976562v65h227v-664c0 -30.667 -11.333 -57.334 -34 -80.001c-22 -22 -48.667 -33 -80 -33c-30.667 0 -57.334 11 -80.001 33c-22 22.667 -33 49.334 -33 80.001v81h65v-81c0 -13.333 4.66699 -24.666 14 -33.999s20.666 -14 33.999 -14
s24.666 4.66699 33.999 14c10 10 15 21.333 15 34v599z" />
    <glyph glyph-name="K" unicode="K" 
d="M65 777l0.000976562 -322.999l93 323h68l-76 -260c39.333 -74.667 62 -156.667 68 -246s9 -167 9 -233v-38h-65v38c0 26 -0.5 54.167 -1.5 84.5s-2.16699 63.166 -3.5 98.499s-4.83301 69.333 -10.5 102s-13.834 65 -24.501 97l-57 -198v-222h-65v777h65z" />
    <glyph glyph-name="L" unicode="L" 
d="M65 777v-712h162v-65h-227v777h65z" />
    <glyph glyph-name="M" unicode="M" horiz-adv-x="400" 
d="M0 0v777h66l96 -311l95 311h67v-777h-65v562l-66 -216h-62l-66 216v-562h-65z" />
    <glyph glyph-name="N" unicode="N" 
d="M0 0v777h65l97 -463v463h65v-777h-66l-96 463v-463h-65z" />
    <glyph glyph-name="O" unicode="O" 
d="M113 777c31.333 0 58 -11.333 80 -34c22.667 -22 34 -48.667 34 -80v-550c0 -30.667 -11.333 -57.334 -34 -80.001c-22 -22 -48.667 -33 -80 -33c-30.667 0 -57.334 11 -80.001 33c-22 22.667 -33 49.334 -33 80.001v550c0 31.333 11 58 33 80
c22.667 22.667 49.334 34 80.001 34zM113 712c-12 0 -23.332 -4.66797 -33.999 -14.001c-9.33301 -9.33301 -14 -21 -14 -35v-550c0 -13.333 4.66699 -24.666 14 -33.999s20.666 -14 33.999 -14s24.666 4.66699 33.999 14c10 10 15 21.333 15 34v550c0 13.333 -5 25 -15 35
c-9.33301 9.33301 -20.666 14 -33.999 14z" />
    <glyph glyph-name="P" unicode="P" 
d="M0 0v777h129c26.667 0 49.667 -9.66699 69 -29s29 -42 29 -68v-324c0 -26.667 -9.66699 -49.667 -29 -69c-19.333 -18.667 -42.333 -28 -69 -28h-64v-259h-65zM65 712l0.000976562 -388.001h64c9.33301 0 17 3 23 9c6.66699 6.66699 10 14.334 10 23.001v324
c0 8 -3.33301 15.333 -10 22s-14.334 10 -23.001 10h-64z" />
    <glyph glyph-name="Q" unicode="Q" 
d="M142 227l12.001 -32v472c0 12.667 -4.33301 23.334 -13 32.001s-19.334 13 -32.001 13c-12 0 -22.333 -4.33301 -31 -13s-13 -19.334 -13 -32.001v-558c0 -12 4.33301 -22.333 13 -31s19 -13 31 -13c8 0 16.333 2.66699 25 8l-58 153zM205.001 57l21.999 -57h-65l-5 11
c-16 -7.33301 -32 -11 -48 -11c-30 0 -55.667 10.667 -77 32s-32 47 -32 77v558c0 30.667 10.667 56.667 32 78c22.667 21.333 48.334 32 77.001 32c30 0 55.667 -10.667 77 -32s32 -47.333 32 -78v-558c0 -20 -4.33301 -37.333 -13 -52z" />
    <glyph glyph-name="R" unicode="R" 
d="M0 0v776.999h129c26.667 0 49.667 -9.66699 69 -29s29 -42 29 -68v-324c0 -26.667 -9.66699 -49.667 -29 -69c-12 -11.333 -26.333 -19.666 -43 -24.999l74 -262h-67l-73 259h-24v-259h-65zM65 711.999l0.000976562 -388.001h64c9.33301 0 17 3 23 9
c6.66699 6.66699 10 14.334 10 23.001v324c0 8 -3.33301 15.333 -10 22s-14.334 10 -23.001 10h-64z" />
    <glyph glyph-name="S" unicode="S" 
d="M154 598v68.9971c0 4.66699 -1.33301 10.667 -4 18c-0.666992 0.666992 -1 1.33398 -1 2.00098c-0.666992 2 -3.33398 6 -8.00098 12c-0.666992 0.666992 -1.33398 1.16699 -2.00098 1.5s-1.33398 0.833008 -2.00098 1.5s-1.33398 1.16699 -2.00098 1.5
s-1.33398 0.833008 -2.00098 1.5c-8.66699 4.66699 -16.667 7 -24 7c-8 0 -13.667 -1.33301 -17 -4c0 -0.666992 -0.333008 -1 -1 -1h-2c-4 -2 -7.66699 -4.66699 -11 -8c-2 -2 -3 -3.33301 -3 -4c-0.666992 -0.666992 -1.16699 -1.33398 -1.5 -2.00098
s-0.833008 -1.33398 -1.5 -2.00098c-4.66699 -6.66699 -7 -14.667 -7 -24v-69c0 -15.333 1.66699 -32.333 5 -51c3.33301 -14.667 8.66602 -30.667 15.999 -48c6 -16 13.5 -31.833 22.5 -47.5s18.5 -31.167 28.5 -46.5l17 -29.5
c4.66699 -8.33301 8.66699 -15.166 12 -20.499c4.66699 -8.66699 9 -17.167 13 -25.5l13 -26.5c6.66699 -16 13 -35.667 19 -59c4.66699 -18.667 7 -40.334 7 -65.001v-70c0 -14 -2.66699 -28 -8 -42c-1.33301 -3.33301 -2.33301 -5.33301 -3 -6
c-5.33301 -12.667 -12.333 -22.334 -21 -29.001c-21.333 -21.333 -47 -32 -77 -32c-15.333 0 -29.333 3 -42 9c-2.66699 1.33301 -5 2.33301 -7 3c-10 4.66699 -19.333 11.334 -28 20.001c-21.333 21.333 -32 47 -32 77v70h65v-70c0 -12 4.33301 -22.333 13 -31
c0.666992 -0.666992 1.83398 -1.66699 3.50098 -3l7.5 -6c0.666992 -0.666992 1.33398 -1 2.00098 -1h1c4.66699 -2 10.334 -3 17.001 -3c12.667 0 23.334 4.33301 32.001 13c3.33301 3.33301 6 7 8 11v2c0 0.666992 0.333008 1 1 1c2.66699 6 4 11.667 4 17v70
c0 18 -2 35 -6 51l-7.5 25.5c-2.33301 7.66699 -5.16602 14.834 -8.49902 21.501c-5.33301 14 -13 29.667 -23 47c-3.33301 5.33301 -7.16602 12 -11.499 20s-9.5 17 -15.5 27l-29.5 50.5c-9.66699 17 -18.167 34.5 -25.5 52.5c-9.33301 22 -16 41.667 -20 59
c-4.66699 22.667 -7 44.334 -7 65.001v69c0 20.667 5.66699 40.334 17 59.001c0.666992 1.33301 1.66699 2.83301 3 4.5s2.66602 3.5 3.99902 5.5c4.66699 4.66699 7.33398 7.66699 8.00098 9c8.66699 8.66699 18 15.334 28 20.001c2 0.666992 4.33301 1.66699 7 3
c14.667 6 28.667 9 42 9c20 0 39.667 -6 59 -18c2.66699 -2 6 -4.33301 10 -7c1.33301 -0.666992 4 -3 8 -7c8.66699 -9.33301 15.667 -19 21 -29l3 -6c5.33301 -14.667 8 -29 8 -43v-69h-64z" />
    <glyph glyph-name="T" unicode="T" 
d="M81 0v712h-81v65h227v-65h-82v-712h-64z" />
    <glyph glyph-name="U" unicode="U" 
d="M227 777l0.00292969 -664.001c0 -30.667 -11.333 -57.334 -34 -80.001c-22 -22 -48.667 -33 -80 -33c-30.667 0 -57.334 11 -80.001 33c-22 22.667 -33 49.334 -33 80.001v664h65v-664c0 -13.333 4.66699 -24.666 14 -33.999s20.666 -14 33.999 -14
s24.666 4.66699 33.999 14c10 10 15 21.333 15 34v664h65z" />
    <glyph glyph-name="V" unicode="V" horiz-adv-x="346" 
d="M65 777l78 -548l78 548h65l-110 -777h-66l-110 777h65z" />
    <glyph glyph-name="W" unicode="W" horiz-adv-x="543" 
d="M65 777l78 -548l78 548h71l78 -548l77 548h66l-111 -777h-65l-81 567l-80 -567h-66l-110 777h65z" />
    <glyph glyph-name="X" unicode="X" 
d="M66 777l48 -230l48 230h66l-81 -389l81 -388h-66l-48 230l-48 -230h-66l81 388l-81 389h66z" />
    <glyph glyph-name="Y" unicode="Y" 
d="M152 288v-288h-65v288l-87 489h66l54 -302l53 302h66z" />
    <glyph glyph-name="Z" unicode="Z" 
d="M0 777h227v-66l-161 -646h161v-65h-227v67l160 645h-160v65z" />
    <glyph glyph-name="bracketleft" unicode="[" horiz-adv-x="200" 
d="M113 841c-16.667 -57.333 -29.002 -127.334 -37.002 -210.001c-8 -80 -12 -162.333 -12 -247s4 -166.334 12 -245.001c4.66699 -40 10 -76.833 16 -110.5s13 -64.5 21 -92.5h-29c-18.667 40.667 -34.167 85.334 -46.5 134.001s-21.666 99.5 -27.999 152.5
s-9.5 107.167 -9.5 162.5s3.16699 109.833 9.5 163.5s15.833 105.334 28.5 155.001s28.334 95.5 47.001 137.5h28z" />
    <glyph glyph-name="backslash" unicode="\" horiz-adv-x="310" 
d="M0 842h63l185 -907h-65z" />
    <glyph glyph-name="bracketright" unicode="]" horiz-adv-x="200" 
d="M0 841l28 0.00195312c19.333 -42.667 35.333 -88.834 48 -138.501s22 -101.334 28 -155.001s9 -108 9 -163s-3.16699 -109 -9.5 -162s-15.833 -103.833 -28.5 -152.5s-28 -93.334 -46 -134.001h-29c16 56 28 123.667 36 203c8 78.667 12 160.334 12 245.001
s-4 167 -12 247c-8 80.667 -20 150.667 -36 210z" />
    <glyph glyph-name="underscore" unicode="_" 
d="M0 -98h297v-68h-297v68z" />
    <glyph glyph-name="grave" unicode="`" horiz-adv-x="245" 
d="M44 597l-120 120h98l103 -120h-81z" />
    <glyph glyph-name="a" unicode="a" 
d="M227 -3l-65.001 -0.000976562v14c-16.667 -7.33301 -33 -11 -49 -11c-30.667 0 -57.334 11 -80.001 33c-22 22.667 -33 49.334 -33 80.001c0 76.667 14 130.667 42 162c29.333 32.667 67.666 64.667 114.999 96c-0.666992 0 1 0.666992 5 2v31c0 13.333 -5 25 -15 35
c-9.33301 9.33301 -20.666 14 -33.999 14s-24.666 -4.66699 -33.999 -14s-14 -21 -14 -35h-65c0 31.333 11 58 33 80c22.667 22.667 49.334 34 80.001 34c31.333 0 58 -11.333 80 -34c22.667 -22 34 -48.667 34 -80v-407zM161.999 294.999
c-30.667 -21.333 -54.3311 -44.334 -70.998 -69.001c-17.333 -25.333 -26 -63 -26 -113c0 -13.333 4.66699 -24.666 14 -33.999s20.666 -14 33.999 -14s24.666 4.66699 33.999 14c10 10 15 21.333 15 34v182z" />
    <glyph glyph-name="b" unicode="b" 
d="M0 388l0.000976562 389h65v-270c16 7.33301 32 11 48 11c31.333 0 58 -11.333 80 -34c22.667 -22 34 -48.667 34 -80v-291c0 -30.667 -11.333 -57.334 -34 -80.001c-22 -22 -48.667 -33 -80 -33c-30.667 0 -57.334 11 -80.001 33c-22 22.667 -33 49.334 -33 80.001v275z
M65.001 404v-291.001c0 -13.333 4.66699 -24.666 14 -33.999s20.666 -14 33.999 -14s24.666 4.66699 33.999 14c10 10 15 21.333 15 34v291c0 13.333 -5 25 -15 35c-9.33301 9.33301 -20.666 14 -33.999 14s-24.666 -4.66699 -33.999 -14s-14 -21 -14 -35z" />
    <glyph glyph-name="c" unicode="c" 
d="M193 33c-4 -4 -7.00391 -6.67285 -9.00391 -8.00586c-4 -2.66699 -6.83301 -4.66699 -8.5 -6s-2.16699 -1.66602 -1.5 -0.999023c-19.333 -12 -39.666 -18 -60.999 -18c-30.667 0 -57.334 11 -80.001 33c-22 22.667 -33 49.334 -33 80.001v291c0 31.333 11 58 33 80
c22.667 22.667 49.334 34 80.001 34c31.333 0 58 -11.333 80 -34c22.667 -22 34 -48.667 34 -80v-177h-65v177c0 13.333 -5 25 -15 35c-9.33301 9.33301 -20.666 14 -33.999 14s-24.666 -4.66699 -33.999 -14s-14 -21 -14 -35v-291c0 -13.333 4.66699 -24.666 14 -33.999
s20.666 -14 33.999 -14c8.66699 0 17.334 2.33301 26.001 7c0.666992 0 1.33398 0.333008 2.00098 1s1.66699 1.33398 3 2.00098c0.666992 0.666992 1.16699 1.33398 1.5 2.00098s0.833008 1.33398 1.5 2.00098z" />
    <glyph glyph-name="d" unicode="d" 
d="M113 518c16 0 32.333 -3.66797 49 -11.001v270h65v-777h-65v11c-16.667 -7.33301 -33 -11 -49 -11c-30.667 0 -57.334 11 -80.001 33c-22 22.667 -33 49.334 -33 80.001v291c0 31.333 11 58 33 80c22.667 22.667 49.334 34 80.001 34zM113 452.999
c-13.333 0 -24.666 -4.66797 -33.999 -14.001s-14 -21 -14 -35v-291c0 -13.333 4.66699 -24.666 14 -33.999s20.666 -14 33.999 -14s24.666 4.66699 33.999 14c10 10 15 21.333 15 34v291c0 13.333 -5 25 -15 35c-9.33301 9.33301 -20.666 14 -33.999 14z" />
    <glyph glyph-name="e" unicode="e" horiz-adv-x="298" 
d="M193 33c-4 -4 -7.00195 -6.67285 -9.00195 -8.00586c-4 -2.66699 -6.83301 -4.66699 -8.5 -6s-2.16699 -1.66602 -1.5 -0.999023c-19.333 -12 -39.666 -18 -60.999 -18c-30.667 0 -57.334 11 -80.001 33c-22 22.667 -33 49.334 -33 80.001v291c0 31.333 11 58 33 80
c22.667 22.667 49.334 34 80.001 34c31.333 0 58 -11.333 80 -34c22.667 -22 34 -48.667 34 -80v-177h-162v-114c0 -13.333 4.66699 -24.666 14 -33.999s20.666 -14 33.999 -14c8.66699 0 17.334 2.33301 26.001 7c0.666992 0 1.33398 0.333008 2.00098 1
s1.66699 1.33398 3 2.00098c0.666992 0.666992 1.16699 1.33398 1.5 2.00098s0.833008 1.33398 1.5 2.00098zM161.998 290.994l-0.00195312 113c0 13.333 -5 25 -15 35c-9.33301 9.33301 -20.666 14 -33.999 14s-24.666 -4.66699 -33.999 -14s-14 -21 -14 -35v-113h97z" />
    <glyph glyph-name="f" unicode="f" horiz-adv-x="261" 
d="M65 0l-0.000976562 453h-65v65h64v148v3c0.666992 28 11.667 53.667 33 77c22 20.667 47.667 31.667 77 33h3c16 0 30.667 -3 44 -9c2.66699 -1.33301 5 -2.33301 7 -3c12 -8 21.667 -15 29 -21l-45 -46c-5.33301 4.66699 -9.66602 7.66699 -12.999 9
c-0.666992 0.666992 -1.66699 1 -3 1c-4.66699 2.66699 -11 4 -19 4h-1c-12.667 0 -23.667 -4.66699 -33 -14c-9.33301 -11.333 -14 -22.333 -14 -33v-1v-148h65v-65h-65v-453h-64z" />
    <glyph glyph-name="g" unicode="g" 
d="M113 518c16 0 32.3291 -3.66504 48.9961 -10.998v11h65v-531c0 -16.667 -3 -31.334 -9 -44.001c-1.33301 -2.66699 -2.33301 -5 -3 -7c-5.33301 -10 -12.333 -19.667 -21 -29c-4.66699 -4.66699 -7.66699 -7.33398 -9 -8.00098l-6.5 -5
c-1.66699 -1.33301 -2.83398 -2.33301 -3.50098 -3c-20 -12 -40.333 -18 -61 -18c-12.667 0 -27.334 3 -44.001 9c-3.33301 2 -5.66602 3 -6.99902 3c-12 6.66699 -21.667 14 -29 22l46 45l12 -9c0.666992 -0.666992 1.33398 -1 2.00098 -1h1
c7.33301 -2.66699 13.666 -4 18.999 -4c8.66699 0 17.334 2.66699 26.001 8c0.666992 0.666992 1.33398 1.16699 2.00098 1.5s1.33398 0.833008 2.00098 1.5s1.33398 1.16699 2.00098 1.5s1.33398 0.833008 2.00098 1.5c4.66699 5.33301 7.66699 9.66602 9 12.999
c0 2 0.666992 3 2 3c2 6 3 12.333 3 19v24c-16.667 -7.33301 -33 -11 -49 -11c-30.667 0 -57.334 11 -80.001 33c-22 22.667 -33 49.334 -33 80.001v291c0 31.333 11 58 33 80c22.667 22.667 49.334 34 80.001 34zM112.996 453.002
c-13.333 0 -24.666 -4.66797 -33.999 -14.001s-14 -21 -14 -35v-291c0 -13.333 4.66699 -24.666 14 -33.999s20.666 -14 33.999 -14s24.666 4.66699 33.999 14c10 10 15 21.333 15 34v291c0 13.333 -5 25 -15 35c-9.33301 9.33301 -20.666 14 -33.999 14z" />
    <glyph glyph-name="h" unicode="h" 
d="M0 0l-0.00195312 777h65v-270c16 7.33301 32 11 48 11c31.333 0 58 -11.333 80 -34c22.667 -22 34 -48.667 34 -80v-404h-65v404c0 13.333 -5 25 -15 35c-9.33301 9.33301 -20.666 14 -33.999 14s-24.666 -4.66699 -33.999 -14s-14 -21 -14 -35v-404h-65z" />
    <glyph glyph-name="i" unicode="i" horiz-adv-x="137" 
d="M65 0h-64v518h64v-518zM65 712v-65h-64v65h64z" />
    <glyph glyph-name="j" unicode="j" horiz-adv-x="284" 
d="M193 518l-0.00195312 -530.995c0 -16.667 -3 -31.334 -9 -44.001c-1.33301 -2.66699 -2.33301 -5 -3 -7c-5.33301 -11.333 -12.333 -21 -21 -29c-4.66699 -4.66699 -7.66699 -7.33398 -9 -8.00098c-2 -1.33301 -3.83301 -2.5 -5.5 -3.5s-3.16699 -2.5 -4.5 -4.5
c-20 -12 -40.333 -18 -61 -18c-12.667 0 -27.334 3 -44.001 9c-3.33301 2 -5.33301 3 -6 3c-13.333 7.33301 -23.333 14.666 -30 21.999l46 45l12 -9c0.666992 -0.666992 1.33398 -1 2.00098 -1h1c7.33301 -2.66699 13.666 -4 18.999 -4c8.66699 0 17.334 2.66699 26.001 8
c0.666992 0.666992 1.33398 1.16699 2.00098 1.5s1.33398 0.833008 2.00098 1.5c0 2 1.33301 3 4 3c4.66699 5.33301 7.66699 9.66602 9 12.999c1.33301 1.33301 2 2.33301 2 3c2.66699 7.33301 4 13.666 4 18.999v531h64zM192.998 712.005v-65h-64v65h64z" />
    <glyph glyph-name="k" unicode="k" 
d="M164 385c17.333 -60 31 -122.167 41 -186.5s19 -130.5 27 -198.5h-65c-6 52 -12.667 102.667 -20 152s-16.333 98 -27 146l-55 -111v-187h-65v777h65v-446l93 187h72z" />
    <glyph glyph-name="l" unicode="l" horiz-adv-x="151" 
d="M65 0h-65v777h65v-777z" />
    <glyph glyph-name="m" unicode="m" horiz-adv-x="403" 
d="M65 518l0.000976562 -6c10 4 20.667 6 32 6c24 0 45.333 -8.33301 64 -25c18.667 16.667 40.334 25 65.001 25c27.333 0 50.333 -9.33301 69 -28c19.333 -19.333 29 -42 29 -68v-421h-65v421c0 8 -3.33301 15.333 -10 22s-14 10 -22 10
c-8.66699 0 -16.334 -3.33301 -23.001 -10s-10 -14 -10 -22v-421h-65v420c0 9.33301 -3 17 -9 23c-7.33301 6 -15 9 -23 9c-8.66699 0 -16.334 -3 -23.001 -9c-6 -6 -9 -13.667 -9 -23v-421h-65v518h65z" />
    <glyph glyph-name="n" unicode="n" 
d="M0 0l-0.00195312 518h65v-11c16 7.33301 32 11 48 11c31.333 0 58 -11.333 80 -34c22.667 -22 34 -48.667 34 -80v-404h-65v404c0 13.333 -5 25 -15 35c-9.33301 9.33301 -20.666 14 -33.999 14s-24.666 -4.66699 -33.999 -14s-14 -21 -14 -35v-404h-65z" />
    <glyph glyph-name="o" unicode="o" 
d="M113 518c31.333 0 58 -11.333 80 -34c22.667 -22 34 -48.667 34 -80v-291c0 -30.667 -11.333 -57.334 -34 -80.001c-22 -22 -48.667 -33 -80 -33c-30.667 0 -57.334 11 -80.001 33c-22 22.667 -33 49.334 -33 80.001v291c0 31.333 11 58 33 80
c22.667 22.667 49.334 34 80.001 34zM113 453c-13.333 0 -24.666 -4.66797 -33.999 -14.001s-14 -21 -14 -35v-291c0 -13.333 4.66699 -24.666 14 -33.999s20.666 -14 33.999 -14s24.666 4.66699 33.999 14c10 10 15 21.333 15 34v291c0 13.333 -5 25 -15 35
c-9.33301 9.33301 -20.666 14 -33.999 14z" />
    <glyph glyph-name="p" unicode="p" 
d="M113 518c31.333 0 58 -11.332 80 -33.999c22.667 -22 34 -48.667 34 -80v-291c0 -30.667 -11.333 -57.334 -34 -80.001c-22 -22 -48.667 -33 -80 -33c-16 0 -32 3.66699 -48 11v-172h-65v679h65v-11c16 7.33301 32 11 48 11zM113 453.001
c-13.333 0 -24.666 -4.66797 -33.999 -14.001s-14 -21 -14 -35v-291c0 -13.333 4.66699 -24.666 14 -33.999s20.666 -14 33.999 -14s24.666 4.66699 33.999 14c10 10 15 21.333 15 34v291c0 13.333 -5 25 -15 35c-9.33301 9.33301 -20.666 14 -33.999 14z" />
    <glyph glyph-name="q" unicode="q" 
d="M228 356v-517.001h-65v173c-15.333 -8 -32 -12 -50 -12c-30.667 0 -57.334 11 -80.001 33c-22 22.667 -33 49.334 -33 80.001v291c0 31.333 11 58 33 80c22.667 22.667 49.334 34 80.001 34c31.333 0 58 -11.333 80 -34c22.667 -22 34 -48.667 34 -80zM113 452.999
c-13.333 0 -24.666 -4.66797 -33.999 -14.001s-14 -21 -14 -35v-291c0 -13.333 4.66699 -24.666 14 -33.999s20.666 -14 33.999 -14s24.666 4.66699 33.999 14c10 10 15 21.333 15 34v291c0 13.333 -5 25 -15 35c-9.33301 9.33301 -20.666 14 -33.999 14z" />
    <glyph glyph-name="r" unicode="r" horiz-adv-x="230" 
d="M65 518v-11.001c16 7.33301 32 11 48 11c13.333 0 28 -3 44 -9c-1.33301 0.666992 -1.33301 0.666992 0 0s3.66602 -1.66699 6.99902 -3c13.333 -8 23 -15.333 29 -22l-46 -45c-3.33301 2.66699 -7.33301 5.66699 -12 9h-3v1c-4.66699 2.66699 -11 4 -19 4
c-13.333 0 -24.666 -4.66699 -33.999 -14c-5.33301 -5.33301 -8.33301 -9.66602 -9 -12.999c-0.666992 -0.666992 -1 -1.33398 -1 -2.00098s-0.333008 -1 -1 -1c-2 -5.33301 -3 -11.666 -3 -18.999v-404h-65v518h65z" />
    <glyph glyph-name="s" unicode="s" horiz-adv-x="128" 
d="M0 -94l-0.00195312 759.999c0 30 11 56.667 33 80c22.667 22 49.334 33 80.001 33c16 0 30.667 -3 44 -9c2.66699 -1.33301 5 -2.33301 7 -3c12 -8 21.667 -15 29 -21l-46 -46c-3.33301 2.66699 -7.33301 5.66699 -12 9h-3v1c-4.66699 2.66699 -11 4 -19 4
c-13.333 0 -24.666 -4.66699 -33.999 -14s-14 -20.666 -14 -33.999v-760h-65z" />
    <glyph glyph-name="t" unicode="t" horiz-adv-x="195" 
d="M-14 518h48v162l64 32v-194h47v-65h-47v-453h-64v453h-48v65z" />
    <glyph glyph-name="u" unicode="u" 
d="M227 518l0.00292969 -518.002h-65v11c-16.667 -7.33301 -33 -11 -49 -11c-30.667 0 -57.334 11 -80.001 33c-22 22.667 -33 49.334 -33 80.001v405h65v-405c0 -13.333 4.66699 -24.666 14 -33.999s20.666 -14 33.999 -14s24.666 4.66699 33.999 14c10 10 15 21.333 15 34
v405h65z" />
    <glyph glyph-name="v" unicode="v" 
d="M78 0l-78 518h70l43 -289l44 289h70l-79 -518h-70z" />
    <glyph glyph-name="w" unicode="w" horiz-adv-x="456" 
d="M78 0l-78 518h70l43 -289l44 289h74l44 -289l44 289h69l-78 -518h-70l-46 304l-46 -304h-70z" />
    <glyph glyph-name="x" unicode="x" 
d="M159 518h67l-79 -259l79 -259h-67l-46 149l-46 -149h-67l79 259l-79 258h67l46 -148z" />
    <glyph glyph-name="y" unicode="y" 
d="M0 518l70 -0.000976562l43 -289l44 289h70l-89 -572l2 -3c-8 -31.333 -19.667 -55.666 -35 -72.999c-21.333 -21.333 -51 -32 -89 -32v65c20.667 0 35 4 43 12c6.66699 8.66699 12.667 22.667 18 42l7 43z" />
    <glyph glyph-name="z" unicode="z" 
d="M70 65h157v-65h-227v65l157 388h-157v65h227v-65z" />
    <glyph glyph-name="braceleft" unicode="{" horiz-adv-x="200" 
d="M113 841c-16.667 -57.333 -29.002 -127.334 -37.002 -210.001c-8 -80 -12 -162.333 -12 -247s4 -166.334 12 -245.001c4.66699 -40 10 -76.833 16 -110.5s13 -64.5 21 -92.5h-29c-18.667 40.667 -34.167 85.334 -46.5 134.001s-21.666 99.5 -27.999 152.5
s-9.5 107.167 -9.5 162.5s3.16699 109.833 9.5 163.5s15.833 105.334 28.5 155.001s28.334 95.5 47.001 137.5h28z" />
    <glyph glyph-name="bar" unicode="|" horiz-adv-x="151" 
d="M65 -65h-65v907h63z" />
    <glyph glyph-name="braceright" unicode="}" horiz-adv-x="200" 
d="M0 841l28 0.00195312c19.333 -42.667 35.333 -88.834 48 -138.501s22 -101.334 28 -155.001s9 -108 9 -163s-3.16699 -109 -9.5 -162s-15.833 -103.833 -28.5 -152.5s-28 -93.334 -46 -134.001h-29c16 56 28 123.667 36 203c8 78.667 12 160.334 12 245.001
s-4 167 -12 247c-8 80.667 -20 150.667 -36 210z" />
    <glyph glyph-name="exclamdown" unicode="&#xa1;" horiz-adv-x="150" 
d="M0 712v65h65v-65h-65zM0 0v154l17 461h32l16 -461v-154h-65z" />
    <glyph glyph-name="cent" unicode="&#xa2;" horiz-adv-x="307" 
d="M135 -56l-42.001 -0.00585938v57c-22.667 4 -42.667 14.667 -60 32c-22 22.667 -33 49.334 -33 80.001v291c0 31.333 11 58 33 80c17.333 17.333 37.333 28 60 32v68h42v-68c22.667 -5.33301 42 -16 58 -32c22.667 -22 34 -48.667 34 -80v-177h-65v177
c0 13.333 -5 25 -15 35c-4 4 -8 7 -12 9v-378l4 2c0.666992 0 1.33398 0.333008 2.00098 1s1.66699 1.33398 3 2.00098c0.666992 0.666992 1.16699 1.33398 1.5 2.00098s0.833008 1.33398 1.5 2.00098l46 -46c-4 -4 -7 -6.66699 -9 -8
c-4 -2.66699 -6.83301 -4.66699 -8.5 -6s-2.16699 -1.66602 -1.5 -0.999023c-12 -7.33301 -25 -12.666 -39 -15.999v-58zM78.999 438.994c-9.33301 -9.33301 -14 -21.001 -14 -35.001v-291c0 -13.333 4.66699 -24.666 14 -33.999c3.33301 -4 8 -7.33301 14 -10v379
c-5.33301 -2 -10 -5 -14 -9z" />
    <glyph glyph-name="sterling" unicode="&#xa3;" horiz-adv-x="261" 
d="M0 3l-0.00195312 65h65v233h-65v65h64v303c0.666992 28 11.667 53.667 33 77c22 20.667 47.667 31.667 77 33c18 0 33.667 -3 47 -9c2.66699 -1.33301 5 -2.33301 7 -3c12 -8 21.667 -15 29 -21l-45 -46c-5.33301 4.66699 -9.66602 7.66699 -12.999 9
c-0.666992 0.666992 -1.66699 1 -3 1c-4.66699 2.66699 -11 4 -19 4c-13.333 0 -24.666 -4.66699 -33.999 -14c-9.33301 -11.333 -14 -22.333 -14 -33v-301h65v-65h-65v-233h98v-65h-227z" />
    <glyph glyph-name="yen" unicode="&#xa5;" 
d="M27 217h60v65h-60v65h49l-76 430h66l54 -302l53 302h66l-77 -430h59v-65h-69v-65h69v-64h-69v-153h-65v153h-60v64z" />
    <glyph glyph-name="section" unicode="&#xa7;" 
d="M162 671c0 13.333 -5 25.001 -15 35.001c-9.33301 9.33301 -20.666 14 -33.999 14s-24.666 -4.66699 -33.999 -14s-14 -21 -14 -35v-24c0 -10 6.33301 -22.333 19 -37l8.5 -8.5c2.33301 -2.33301 4.16602 -4.5 5.49902 -6.5l80 -97c2.66699 -2.66699 5.16699 -5 7.5 -7
s4.83301 -4.33301 7.5 -7c22.667 -22 34 -48.667 34 -80v-48c-6 -20.667 -17.333 -39.334 -34 -56.001c-14.667 -14.667 -30.667 -24.334 -48 -29.001l33 -40c0.666992 -3.33301 2.66699 -5.33301 6 -6c8.66699 -10.667 15.834 -20.167 21.501 -28.5
s9.83398 -15.5 12.501 -21.5c6 -11.333 9 -32 9 -62c0 -30.667 -11.333 -57.334 -34 -80.001c-22 -22 -48.667 -33 -80 -33c-30.667 0 -57.334 11 -80.001 33c-22 22.667 -33 49.334 -33 80.001v49h65v-49c0 -13.333 4.66699 -24.666 14 -33.999s20.666 -14 33.999 -14
s24.666 4.66699 33.999 14c10 10 15 21.333 15 34c0 18.667 -2 31.667 -6 39c-2.66699 6 -10 16.667 -22 32c-2 0.666992 -3.66699 2.66699 -5 6l-81 97c-2.66699 2 -5.16699 4 -7.5 6s-4.83301 4.33301 -7.5 7c-11.333 11.333 -19.333 23 -24 35c-6 10.667 -9 25.667 -9 45
v49c6 20.667 17 39 33 55c14.667 14.667 30.667 24.667 48 30l-33 40c-2 2 -4 4.16699 -6 6.5s-4 4.5 -6 6.5c-10.667 11.333 -19.334 22.5 -26.001 33.5s-10 26.5 -10 46.5v24c0 31.333 11 58 33 80c22.667 22.667 49.334 34 80.001 34c31.333 0 58 -11.333 80 -34
c22.667 -22 34 -48.667 34 -80v-48h-65v48zM65 377.001c0.666992 -8.66699 6.99902 -20 18.999 -34l4 -5c6.66699 -4 15 -6 25 -6c13.333 0 24.666 4.66699 33.999 14c10 10 15 21.333 15 34c0 18.667 -2 31.667 -6 39c-1.33301 3.33301 -3.66602 7.33301 -6.99902 12
s-7.33301 9.66699 -12 15c-6.66699 4.66699 -14.667 7 -24 7c-13.333 0 -24.666 -4.66699 -33.999 -14c-8 -8 -12.667 -18 -14 -30v-32z" />
    <glyph glyph-name="dieresis" unicode="&#xa8;" horiz-adv-x="161" 
d="M187 712v-65h-64v65h64zM31 712v-65h-64v65h64z" />
    <glyph glyph-name="copyright" unicode="&#xa9;" horiz-adv-x="592" 
d="M392 218l52.001 0.000976562c-16 -82.667 -59.667 -124.667 -131 -126c-50 0 -89 16.667 -117 50c-28 32 -42 73 -42 123c0 52.667 13.667 94.667 41 126s65.666 47.333 114.999 48c36 0 66 -10 90 -30c24 -19.333 38.667 -50.333 44 -93h-52
c-2.66699 20.667 -12 37.667 -28 51c-14 12 -31.667 18 -53 18c-32.667 0 -57.334 -11 -74.001 -33c-18 -23.333 -27 -51.666 -27 -84.999c0 -32.667 9.33301 -60.334 28 -83.001c18 -25.333 43 -38.333 75 -39c20 0 37.667 7 53 21
c14.667 13.333 23.334 30.666 26.001 51.999zM37.001 265.001c1.33301 77.333 27.332 142 77.999 194c49.333 52 111.333 78.333 186 79c73.333 -0.666992 135.333 -27 186 -79c50.667 -51.333 76.334 -116 77.001 -194c-1.33301 -77.333 -27 -141 -77 -191
c-48.667 -52 -110.667 -78.667 -186 -80c-76.667 1.33301 -138.667 28 -186 80c-50.667 50 -76.667 113.667 -78 191zM94 265.001c0 -63.333 19.668 -115.333 59.001 -156c38 -41.333 87.333 -62 148 -62c59.333 0 108.666 20.667 147.999 62
c38 39.333 57.667 91.333 59 156c-1.33301 67.333 -21 120 -59 158c-38.667 40.667 -88 61 -148 61c-60.667 0 -110 -20.333 -148 -61c-39.333 -39.333 -59 -92 -59 -158z" />
    <glyph glyph-name="ordfeminine" unicode="&#xaa;" 
d="M227 245l-65.001 -0.000976562v14c-16.667 -7.33301 -33 -11 -49 -11c-30.667 0 -57.334 11 -80.001 33c-22 22.667 -33 49.334 -33 80.001c0 76.667 14 130.667 42 162c29.333 32.667 67.666 64.667 114.999 96c-0.666992 0 1 0.666992 5 2v31c0 13.333 -5 25 -15 35
c-9.33301 9.33301 -20.666 14 -33.999 14s-24.666 -4.66699 -33.999 -14s-14 -21 -14 -35h-65c0 31.333 11 58 33 80c22.667 22.667 49.334 34 80.001 34c31.333 0 58 -11.333 80 -34c22.667 -22 34 -48.667 34 -80v-407zM161.999 542.999
c-30.667 -21.333 -54.3311 -44.334 -70.998 -69.001c-17.333 -25.333 -26 -63 -26 -113c0 -13.333 4.66699 -24.666 14 -33.999s20.666 -14 33.999 -14s24.666 4.66699 33.999 14c10 10 15 21.333 15 34v182zM0.00195312 182.998h227v-65h-227v65z" />
    <glyph glyph-name="guillemotleft" unicode="&#xab;" horiz-adv-x="330" 
d="M197 518h67l-79 -259l79 -259h-67l-80 259zM75 518h67l-79 -259l79 -259h-67l-80 259z" />
    <glyph glyph-name="logicalnot" unicode="&#xac;" 
d="M224 388h-65v65h-159v65h227z" />
    <glyph glyph-name="registered" unicode="&#xae;" horiz-adv-x="592" 
d="M253 382l0.00195312 -90.001h36c11.333 -0.666992 21.666 -0.333984 30.999 0.999023s18 3.33301 26 6c15.333 4.66699 23.666 17.334 24.999 38.001c-0.666992 18.667 -8 31.334 -22 38.001c-12 4.66699 -28 7 -48 7h-48zM201.002 113.999v317.999h116
c70.667 0.666992 106 -31 106 -95c-1.33301 -31.333 -9 -54 -23 -68c-15.333 -13.333 -34 -21.666 -56 -24.999l89 -130h-61l-89 129h-30v-129h-52zM37.002 264.998c0.666992 76 26.666 140.667 77.999 194c49.333 52 111.333 78.333 186 79
c73.333 -0.666992 135.333 -27 186 -79c50.667 -51.333 76.334 -116 77.001 -194c-1.33301 -77.333 -27 -141 -77 -191c-48.667 -52 -110.667 -78.667 -186 -80c-76.667 1.33301 -138.667 28 -186 80c-51.333 51.333 -77.333 115 -78 191zM94.001 264.998
c0 -63.333 19.668 -115.333 59.001 -156c38 -41.333 87.333 -62 148 -62c59.333 0 108.666 20.667 147.999 62c38 39.333 57.667 91.333 59 156c-1.33301 67.333 -21 120 -59 158c-38.667 40.667 -88 61 -148 61c-60.667 0 -110 -20.333 -148 -61
c-39.333 -39.333 -59 -92 -59 -158z" />
    <glyph glyph-name="degree" unicode="&#xb0;" horiz-adv-x="309" 
d="M114 779c31.333 0 58 -11.333 80 -34c22.667 -22 34 -48.667 34 -80v-73c0 -30.667 -11.333 -57.334 -34 -80.001c-22 -22 -48.667 -33 -80 -33c-30.667 0 -57.334 11 -80.001 33c-22 22.667 -33 49.334 -33 80.001v73c0 31.333 11 58 33 80
c22.667 22.667 49.334 34 80.001 34zM114 714c-13.333 0 -24.666 -4.66797 -33.999 -14.001s-14 -21 -14 -35v-73c0 -13.333 4.66699 -24.666 14 -33.999s20.666 -14 33.999 -14s24.666 4.66699 33.999 14c10 10 15 21.333 15 34v73c0 13.333 -5 25 -15 35
c-9.33301 9.33301 -20.666 14 -33.999 14z" />
    <glyph glyph-name="plusminus" unicode="&#xb1;" 
d="M0 518h81v81h65v-81h81v-65h-81v-81h-65v81h-81v65zM0 312h227v-65h-227v65z" />
    <glyph glyph-name="twosuperior" unicode="&#xb2;" 
d="M33 575c-0.666992 1.33301 -3.33496 4.33301 -8.00195 9c0.666992 -0.666992 0.333984 -0.166992 -0.999023 1.5s-3.33301 4.5 -6 8.5c-12 18.667 -18 39 -18 61v8c0 16 3 30.667 9 44c1.33301 2.66699 2.33301 5 3 7c4 9.33301 11 19 21 29
c22.667 22.667 49.334 34 80.001 34c13.333 0 28 -3 44 -9c2.66699 -2 5 -3 7 -3c13.333 -8 23 -15.333 29 -22c4 -4 6.66699 -7 8 -9c2.66699 -2.66699 5 -6 7 -10c12.667 -17.333 19 -37.666 19 -60.999v-8c0 -4 -0.5 -7.83301 -1.5 -11.5s-1.5 -7.5 -1.5 -11.5
c-2 -7.33301 -4 -13.333 -6 -18l-151 -279h160v-65h-227v68l157 296c0 0.666992 0.333008 1.66699 1 3s1 2.66602 1 3.99902s0.666992 3 2 5c0 1.33301 0.166992 2.66602 0.5 3.99902s0.5 3 0.5 5v8c0 8.66699 -2.66699 17.334 -8 26.001c-2 2 -3 3.66699 -3 5
c-2 0 -3.33301 1.33301 -4 4l-12 9h-3v1c-4.66699 2.66699 -11 4 -19 4c-12 0 -23.333 -4.66699 -34 -14c-5.33301 -5.33301 -8.33301 -9.66602 -9 -12.999c-0.666992 -0.666992 -1 -1.16699 -1 -1.5s-0.333008 -0.833008 -1 -1.5c-2 -6 -3 -12.333 -3 -19v-8
c0 -10.667 2.33301 -19.334 7 -26.001c0 -2.66699 1 -4 3 -4c0 -2 1.33301 -3.33301 4 -4z" />
    <glyph glyph-name="threesuperior" unicode="&#xb3;" 
d="M65 454l0.00195312 -81.002c0 -13.333 4.66699 -24.666 14 -33.999s20.666 -14 33.999 -14s24.666 4.66699 33.999 14c10 10 15 21.333 15 34v120c0 13.333 -5 25 -15 35c-9.33301 9.33301 -20.666 14 -33.999 14l-61 -2l105 172h-157v65h227v-67l-69 -112
c15.333 -7.33301 27 -15.666 35 -24.999c22.667 -22 34 -48.667 34 -80v-120c0 -30.667 -11.333 -57.334 -34 -80.001c-22 -22 -48.667 -33 -80 -33c-30.667 0 -57.334 11 -80.001 33c-22 22.667 -33 49.334 -33 80.001v81h65z" />
    <glyph glyph-name="acute" unicode="&#xb4;" horiz-adv-x="245" 
d="M14 597l103 120h98l-120 -120h-81z" />
    <glyph glyph-name="mu" unicode="&#xb5;" 
d="M65 -160l-64.998 -0.000976562v678h65v-405c0 -13.333 4.66699 -24.666 14 -33.999s20.666 -14 33.999 -14s24.666 4.66699 33.999 14c10 10 15 21.333 15 34v405h65v-518h-65v11c-16.667 -7.33301 -33 -11 -49 -11c-18 -0 -34 3.33301 -48 10v-170z" />
    <glyph glyph-name="paragraph" unicode="&#xb6;" horiz-adv-x="418" 
d="M115 779c2.66699 0 6 -0.667969 10 -2.00098h220v-777h-65v711h-97v-711h-65v479c-32.667 0 -60.334 11 -83.001 33c-22 22.667 -33 49.334 -33 80.001v73c0 31.333 11 58 33 80c22.667 22.667 49.334 34 80.001 34z" />
    <glyph glyph-name="periodcentered" unicode="&#xb7;" horiz-adv-x="161" 
d="M65 516v-65h-65v65h65z" />
    <glyph glyph-name="onesuperior" unicode="&#xb9;" horiz-adv-x="211" 
d="M2 717l69 60h44v-500h-65v397l-48 -42v85z" />
    <glyph glyph-name="ordmasculine" unicode="&#xba;" 
d="M0 183h227v-65h-227v65zM113 762c31.333 0 58 -11.333 80 -34c22.667 -22 34 -48.667 34 -80v-291c0 -30.667 -11.333 -57.334 -34 -80.001c-22 -22 -48.667 -33 -80 -33c-30.667 0 -57.334 11 -80.001 33c-22 22.667 -33 49.334 -33 80.001v291c0 31.333 11 58 33 80
c22.667 22.667 49.334 34 80.001 34zM113 697c-13.333 0 -24.666 -4.66797 -33.999 -14.001s-14 -21 -14 -35v-291c0 -13.333 4.66699 -24.666 14 -33.999s20.666 -14 33.999 -14s24.666 4.66699 33.999 14c10 10 15 21.333 15 34v291c0 13.333 -5 25 -15 35
c-9.33301 9.33301 -20.666 14 -33.999 14z" />
    <glyph glyph-name="guillemotright" unicode="&#xbb;" horiz-adv-x="330" 
d="M62 0h-67l79 259l-79 259h67l80 -259zM184 0h-67l79 259l-79 259h67l80 -259z" />
    <glyph glyph-name="onequarter" unicode="&#xbc;" horiz-adv-x="666" 
d="M2 717l69 60h44v-500h-65v397l-48 -42v85zM85 0h-85l455 777h85zM561 206v-64h65v-65h-65v-77h-65v77h-97v79l46 360h65l-48 -374h34v64h65z" />
    <glyph glyph-name="onehalf" unicode="&#xbd;" horiz-adv-x="666" 
d="M2 717l69 60h44v-500h-65v397l-48 -42v85zM85 0h-85l455 777h85zM418 307c-0.666992 1.33301 -3.33496 4.33301 -8.00195 9c0.666992 -0.666992 0.333984 -0.166992 -0.999023 1.5s-3.33301 4.5 -6 8.5c-12 18.667 -18 39 -18 61v8c0 16 3 30.667 9 44
c1.33301 2.66699 2.33301 5 3 7c4 9.33301 11 19 21 29c22.667 22.667 49.334 34 80.001 34c13.333 0 28 -3 44 -9c2.66699 -2 5 -3 7 -3c13.333 -8 23 -15.333 29 -22c4 -4 6.66699 -7 8 -9c2.66699 -2.66699 5 -6 7 -10c12.667 -17.333 19 -37.666 19 -60.999v-8
c0 -4 -0.5 -7.83301 -1.5 -11.5s-1.5 -7.5 -1.5 -11.5c-2 -7.33301 -4 -13.333 -6 -18l-151 -279h160v-65h-227v68l157 296c0 0.666992 0.333008 1.66699 1 3s1 2.66602 1 3.99902s0.666992 3 2 5c0 1.33301 0.166992 2.66602 0.5 3.99902s0.5 3 0.5 5v8
c0 8.66699 -2.66699 17.334 -8 26.001c-2 2 -3 3.66699 -3 5c-2 0 -3.33301 1.33301 -4 4l-12 9h-3v1c-4.66699 2.66699 -11 4 -19 4c-12 0 -23.333 -4.66699 -34 -14c-5.33301 -5.33301 -8.33301 -9.66602 -9 -12.999c-0.666992 -0.666992 -1 -1.16699 -1 -1.5
s-0.333008 -0.833008 -1 -1.5c-2 -6 -3 -12.333 -3 -19v-8c0 -10.667 2.33301 -19.334 7 -26.001c0 -2.66699 1 -4 3 -4c0 -2 1.33301 -3.33301 4 -4z" />
    <glyph glyph-name="threequarters" unicode="&#xbe;" horiz-adv-x="725" 
d="M152 0h-85l455 777h85zM607 206v-64h65v-65h-65v-77h-65v77h-97v79l46 360h65l-48 -374h34v64h65zM65 454l0.00195312 -81.002c0 -13.333 4.66699 -24.666 14 -33.999s20.666 -14 33.999 -14s24.666 4.66699 33.999 14c10 10 15 21.333 15 34v120c0 13.333 -5 25 -15 35
c-9.33301 9.33301 -20.666 14 -33.999 14l-61 -2l105 172h-157v65h227v-67l-69 -112c15.333 -7.33301 27 -15.666 35 -24.999c22.667 -22 34 -48.667 34 -80v-120c0 -30.667 -11.333 -57.334 -34 -80.001c-22 -22 -48.667 -33 -80 -33c-30.667 0 -57.334 11 -80.001 33
c-22 22.667 -33 49.334 -33 80.001v81h65z" />
    <glyph glyph-name="questiondown" unicode="&#xbf;" 
d="M227 211l0.00292969 -96.999c0 -31.333 -11 -58 -33 -80c-22.667 -22.667 -49.334 -34 -80.001 -34c-31.333 0 -58 11.333 -80 34c-22.667 22 -34 48.667 -34 80v224c0 16 3.33301 30.667 10 44c1.33301 5.33301 2 7.66602 2 6.99902c6.66699 12 14 21.667 22 29l33 33v1
c4 2.66699 7 6.66699 9 12l1 3c2.66699 4.66699 4 11 4 19v129h65v-129c0 -16.667 -3 -31.334 -9 -44.001c-1.33301 -2.66699 -2.33301 -5 -3 -7c-6.66699 -12 -13.667 -21.667 -21 -29l-33 -33l-23 22l23 -23c-0.666992 -0.666992 -1.83398 -2 -3.50098 -4l-6.5 -8
c0 -0.666992 -0.166992 -1 -0.5 -1s-0.5 -0.333008 -0.5 -1v-1c-2.66699 -7.33301 -4 -13.666 -4 -18.999v-224c0 -13.333 5 -25 15 -35c9.33301 -9.33301 20.666 -14 33.999 -14c12 0 23.333 4.66699 34 14c9.33301 9.33301 14 21 14 35v97h65zM81.0029 712.001v65h65v-65
h-65z" />
    <glyph glyph-name="Agrave" unicode="&#xc0;" 
d="M0 0l55 777h159l28 -777h-65l-6 163h-94l-12 -163h-65zM169 228l-18 484h-35l-35 -484h88zM79 856l-120 120h98l103 -120h-81z" />
    <glyph glyph-name="Aacute" unicode="&#xc1;" 
d="M0 0l55 777h159l28 -777h-65l-6 163h-94l-12 -163h-65zM169 228l-18 484h-35l-35 -484h88zM49 856l103 120h98l-120 -120h-81z" />
    <glyph glyph-name="Acircumflex" unicode="&#xc2;" 
d="M0 0l55 777h159l28 -777h-65l-6 163h-94l-12 -163h-65zM169 228l-18 484h-35l-35 -484h88zM20 840l102 109h44l102 -109h-57l-71 52l-63 -52h-57z" />
    <glyph glyph-name="Atilde" unicode="&#xc3;" 
d="M0 0l55 777h159l28 -777h-65l-6 163h-94l-12 -163h-65zM169 228l-18 484h-35l-35 -484h88zM-20 828c5.33301 32 14.998 57.668 28.998 77.001c16 18.667 36.333 28 61 28c5.33301 0 10.333 -0.5 15 -1.5s9.66699 -2.16699 15 -3.5c10.667 -3.33301 22.667 -9 36 -17
c4 -2.66699 11.333 -5.66699 22 -9c8 -4.66699 16.333 -7 25 -7h3c5.33301 0 9.83301 0.833008 13.5 2.5s7.5 4.16699 11.5 7.5c6.66699 6 12.334 17.333 17.001 34h40c-4 -29.333 -12.333 -53 -25 -71c-13.333 -22 -34 -33 -62 -33c-10 0 -19.333 1.66699 -28 5
c-3.33301 1.33301 -8.16602 3 -14.499 5s-12.5 4.33301 -18.5 7c-22 11.333 -41.667 17.333 -59 18c-8 0 -15.667 -2.33301 -23 -7c-10.667 -6.66699 -16.667 -18.334 -18 -35.001h-40z" />
    <glyph glyph-name="Adieresis" unicode="&#xc4;" 
d="M0 0l55.2285 653.981h159.66l28.1152 -653.981h-65.2695l-6.02441 137.193h-94.3906l-12.0498 -137.193h-65.2695zM169.701 191.902l-18.0742 407.37h-35.1455l-35.1455 -407.37h88.3652zM237 775v-65h-64v65h64zM81 775v-65h-64v65h64z" />
    <glyph glyph-name="Aring" unicode="&#xc5;" 
d="M0 0l55 682h159l28 -682h-65l-6 163h-94l-12 -163h-65zM169 228l-18 389h-35l-35 -389h88zM133 928c31.333 0 58.333 -11.332 81 -33.999c22 -22 33 -48.667 33 -80c0 -30.667 -11.333 -57.334 -34 -80.001c-22 -22 -48.667 -33 -80 -33
c-30.667 0 -57.334 11.333 -80.001 34c-22 22 -33 48.333 -33 79c0 31.333 11 58 33 80c22.667 22.667 49.334 34 80.001 34zM133 863.001c-13.333 0 -24.666 -4.66797 -33.999 -14.001s-14 -21 -14 -35c0 -13.333 4.66699 -24.666 14 -33.999s20.666 -14 33.999 -14
s24.666 4.66699 33.999 14c10 10 15 21.333 15 34c0 13.333 -5 25 -15 35c-9.33301 9.33301 -20.666 14 -33.999 14z" />
    <glyph glyph-name="AE" unicode="&#xc6;" horiz-adv-x="512" 
d="M267 453h129v-65h-129v-323h162v-65h-227v163h-113l-20 -163h-64l91 777h333v-65h-162v-259zM96 228h106v484h-48z" />
    <glyph glyph-name="Ccedilla" unicode="&#xc7;" 
d="M113 777c31.333 0 57.998 -11.334 79.998 -34.001c22.667 -22 34 -48.667 34 -80v-48h-65v48c0 13.333 -5 25 -15 35c-9.33301 9.33301 -20.666 14 -33.999 14c-12 0 -23.333 -4.66699 -34 -14c-9.33301 -9.33301 -14 -21 -14 -35v-550
c0 -13.333 4.66699 -24.666 14 -33.999s20.666 -14 33.999 -14h5c12 1.33301 21.667 6 29 14c10 10 15 21.333 15 34v49h65v-49c0 -30.667 -11.333 -57.334 -34 -80.001c-14.667 -14.667 -32 -24.667 -52 -30v-34l-65 -65v102c-15.333 4.66699 -29.666 13.667 -42.999 27
c-22 22.667 -33 49.334 -33 80.001v550c0 31.333 11 58 33 80c22.667 22.667 49.334 34 80.001 34z" />
    <glyph glyph-name="Egrave" unicode="&#xc8;" 
d="M65 453h129v-65h-129v-323h162v-65h-227v777h227v-65h-162v-259zM138 856l-120 120h98l103 -120h-81z" />
    <glyph glyph-name="Eacute" unicode="&#xc9;" 
d="M65 453h129v-65h-129v-323h162v-65h-227v777h227v-65h-162v-259zM49 856l103 120h98l-120 -120h-81z" />
    <glyph glyph-name="Ecircumflex" unicode="&#xca;" 
d="M65 453h129v-65h-129v-323h162v-65h-227v777h227v-65h-162v-259zM2 840l102 109h44l102 -109h-57l-71 52l-63 -52h-57z" />
    <glyph glyph-name="Edieresis" unicode="&#xcb;" 
d="M65 453h129v-65h-129v-323h162v-65h-227v777h227v-65h-162v-259zM220 971v-65h-64v65h64zM64 971v-65h-64v65h64z" />
    <glyph glyph-name="Igrave" unicode="&#xcc;" horiz-adv-x="247" 
d="M166 777l0.000976562 -680.001c0 -27.333 -9.66699 -50 -29 -68c-19.333 -19.333 -42 -29 -68 -29c-11.333 0 -24 2.66699 -38 8c-1.33301 0 -2.33301 0.166992 -3 0.5s-1.33398 0.5 -2.00098 0.5s-1 0.333008 -1 1c-12.667 6.66699 -21 13 -25 19l46 45l8 -6l2 -1
c6.66699 -1.33301 11 -2 13 -2c8.66699 0 16 3 22 9c6.66699 6.66699 10 14.334 10 23.001v680h65zM143.001 855.999l-120 120h98l103 -120h-81z" />
    <glyph glyph-name="Iacute" unicode="&#xcd;" horiz-adv-x="247" 
d="M166 777l0.000976562 -680.001c0 -27.333 -9.66699 -50 -29 -68c-19.333 -19.333 -42 -29 -68 -29c-11.333 0 -24 2.66699 -38 8c-1.33301 0 -2.33301 0.166992 -3 0.5s-1.33398 0.5 -2.00098 0.5s-1 0.333008 -1 1c-12.667 6.66699 -21 13 -25 19l46 45l8 -6l2 -1
c6.66699 -1.33301 11 -2 13 -2c8.66699 0 16 3 22 9c6.66699 6.66699 10 14.334 10 23.001v680h65zM23.001 855.999l103 120h98l-120 -120h-81z" />
    <glyph glyph-name="Icircumflex" unicode="&#xce;" horiz-adv-x="247" 
d="M166 777l0.000976562 -680.001c0 -27.333 -9.66699 -50 -29 -68c-19.333 -19.333 -42 -29 -68 -29c-11.333 0 -24 2.66699 -38 8c-1.33301 0 -2.33301 0.166992 -3 0.5s-1.33398 0.5 -2.00098 0.5s-1 0.333008 -1 1c-12.667 6.66699 -21 13 -25 19l46 45l8 -6l2 -1
c6.66699 -1.33301 11 -2 13 -2c8.66699 0 16 3 22 9c6.66699 6.66699 10 14.334 10 23.001v680h65zM13.001 836.999l102 109h44l102 -109h-57l-71 52l-63 -52h-57z" />
    <glyph glyph-name="Idieresis" unicode="&#xcf;" horiz-adv-x="247" 
d="M166 777l0.000976562 -680.001c0 -27.333 -9.66699 -50 -29 -68c-19.333 -19.333 -42 -29 -68 -29c-11.333 0 -24 2.66699 -38 8c-1.33301 0 -2.33301 0.166992 -3 0.5s-1.33398 0.5 -2.00098 0.5s-1 0.333008 -1 1c-12.667 6.66699 -21 13 -25 19l46 45l8 -6l2 -1
c6.66699 -1.33301 11 -2 13 -2c8.66699 0 16 3 22 9c6.66699 6.66699 10 14.334 10 23.001v680h65zM233.001 970.999v-65h-64v65h64zM77.001 970.999v-65h-64v65h64z" />
    <glyph glyph-name="Eth" unicode="&#xd0;" horiz-adv-x="348" 
d="M5 518h43v259h129c26.667 0 49.667 -9.66699 69 -29s29 -42 29 -68v-583c0 -27.333 -9.66699 -50 -29 -68c-19.333 -19.333 -42.333 -29 -69 -29h-129v453h-43v65zM113 65l64.001 -0.000976562c9.33301 0 17 3 23 9c6.66699 6.66699 10 14.334 10 23.001v583
c0 8 -3.33301 15.333 -10 22s-14.334 10 -23.001 10h-64v-194h49v-65h-49v-388z" />
    <glyph glyph-name="Ntilde" unicode="&#xd1;" 
d="M0 0v777h65l97 -463v463h65v-777h-66l-96 463v-463h-65zM-27 828c5.33301 32 14.998 57.668 28.998 77.001c16 18.667 36.333 28 61 28c5.33301 0 10.333 -0.5 15 -1.5s9.66699 -2.16699 15 -3.5c10.667 -3.33301 22.667 -9 36 -17c4 -2.66699 11.333 -5.66699 22 -9
c8 -4.66699 16.333 -7 25 -7h3c5.33301 0 9.83301 0.833008 13.5 2.5s7.5 4.16699 11.5 7.5c6.66699 6 12.334 17.333 17.001 34h40c-4 -29.333 -12.333 -53 -25 -71c-13.333 -22 -34 -33 -62 -33c-10 0 -19.333 1.66699 -28 5c-3.33301 1.33301 -8.16602 3 -14.499 5
s-12.5 4.33301 -18.5 7c-22 11.333 -41.667 17.333 -59 18c-8 0 -15.667 -2.33301 -23 -7c-10.667 -6.66699 -16.667 -18.334 -18 -35.001h-40z" />
    <glyph glyph-name="Ograve" unicode="&#xd2;" 
d="M113 777c31.333 0 58 -11.333 80 -34c22.667 -22 34 -48.667 34 -80v-550c0 -30.667 -11.333 -57.334 -34 -80.001c-22 -22 -48.667 -33 -80 -33c-30.667 0 -57.334 11 -80.001 33c-22 22.667 -33 49.334 -33 80.001v550c0 31.333 11 58 33 80
c22.667 22.667 49.334 34 80.001 34zM113 712c-12 0 -23.332 -4.66797 -33.999 -14.001c-9.33301 -9.33301 -14 -21 -14 -35v-550c0 -13.333 4.66699 -24.666 14 -33.999s20.666 -14 33.999 -14s24.666 4.66699 33.999 14c10 10 15 21.333 15 34v550c0 13.333 -5 25 -15 35
c-9.33301 9.33301 -20.666 14 -33.999 14zM96.001 855.999l-120 120h98l103 -120h-81z" />
    <glyph glyph-name="Oacute" unicode="&#xd3;" 
d="M113 777c31.333 0 58 -11.333 80 -34c22.667 -22 34 -48.667 34 -80v-550c0 -30.667 -11.333 -57.334 -34 -80.001c-22 -22 -48.667 -33 -80 -33c-30.667 0 -57.334 11 -80.001 33c-22 22.667 -33 49.334 -33 80.001v550c0 31.333 11 58 33 80
c22.667 22.667 49.334 34 80.001 34zM113 712c-12 0 -23.332 -4.66797 -33.999 -14.001c-9.33301 -9.33301 -14 -21 -14 -35v-550c0 -13.333 4.66699 -24.666 14 -33.999s20.666 -14 33.999 -14s24.666 4.66699 33.999 14c10 10 15 21.333 15 34v550c0 13.333 -5 25 -15 35
c-9.33301 9.33301 -20.666 14 -33.999 14zM49.001 855.999l103 120h98l-120 -120h-81z" />
    <glyph glyph-name="Ocircumflex" unicode="&#xd4;" 
d="M113 777c31.333 0 58 -11.333 80 -34c22.667 -22 34 -48.667 34 -80v-550c0 -30.667 -11.333 -57.334 -34 -80.001c-22 -22 -48.667 -33 -80 -33c-30.667 0 -57.334 11 -80.001 33c-22 22.667 -33 49.334 -33 80.001v550c0 31.333 11 58 33 80
c22.667 22.667 49.334 34 80.001 34zM113 712c-12 0 -23.332 -4.66797 -33.999 -14.001c-9.33301 -9.33301 -14 -21 -14 -35v-550c0 -13.333 4.66699 -24.666 14 -33.999s20.666 -14 33.999 -14s24.666 4.66699 33.999 14c10 10 15 21.333 15 34v550c0 13.333 -5 25 -15 35
c-9.33301 9.33301 -20.666 14 -33.999 14zM4.00098 839.999l102 109h44l102 -109h-57l-71 52l-63 -52h-57z" />
    <glyph glyph-name="Otilde" unicode="&#xd5;" 
d="M113 777c31.333 0 58 -11.333 80 -34c22.667 -22 34 -48.667 34 -80v-550c0 -30.667 -11.333 -57.334 -34 -80.001c-22 -22 -48.667 -33 -80 -33c-30.667 0 -57.334 11 -80.001 33c-22 22.667 -33 49.334 -33 80.001v550c0 31.333 11 58 33 80
c22.667 22.667 49.334 34 80.001 34zM113 712c-12 0 -23.332 -4.66797 -33.999 -14.001c-9.33301 -9.33301 -14 -21 -14 -35v-550c0 -13.333 4.66699 -24.666 14 -33.999s20.666 -14 33.999 -14s24.666 4.66699 33.999 14c10 10 15 21.333 15 34v550c0 13.333 -5 25 -15 35
c-9.33301 9.33301 -20.666 14 -33.999 14zM-22.999 827.999c5.33301 32 14.998 57.668 28.998 77.001c16 18.667 36.333 28 61 28c5.33301 0 10.333 -0.5 15 -1.5s9.66699 -2.16699 15 -3.5c10.667 -3.33301 22.667 -9 36 -17c4 -2.66699 11.333 -5.66699 22 -9
c8 -4.66699 16.333 -7 25 -7h3c5.33301 0 9.83301 0.833008 13.5 2.5s7.5 4.16699 11.5 7.5c6.66699 6 12.334 17.333 17.001 34h40c-4 -29.333 -12.333 -53 -25 -71c-13.333 -22 -34 -33 -62 -33c-10 0 -19.333 1.66699 -28 5c-3.33301 1.33301 -8.16602 3 -14.499 5
s-12.5 4.33301 -18.5 7c-22 11.333 -41.667 17.333 -59 18c-8 0 -15.667 -2.33301 -23 -7c-10.667 -6.66699 -16.667 -18.334 -18 -35.001h-40z" />
    <glyph glyph-name="Odieresis" unicode="&#xd6;" 
d="M116.483 665.979c32.2988 0 59.7871 -9.71387 82.4658 -29.1416c23.3652 -18.8564 35.0479 -41.7129 35.0479 -68.5693v-471.414c0 -26.2852 -11.6826 -49.1416 -35.0479 -68.5693c-22.6787 -18.8564 -50.167 -28.2852 -82.4658 -28.2852
c-31.6123 0 -59.1006 9.42871 -82.4658 28.2852c-22.6787 19.4277 -34.0176 42.2842 -34.0176 68.5693v471.414c-0 26.8564 11.3389 49.7129 34.0176 68.5693c23.3652 19.4277 50.8535 29.1416 82.4658 29.1416zM116.483 610.268c-12.3701 0 -24.0537 -4 -35.0488 -12
c-9.62012 -8 -14.4307 -18 -14.4307 -29.999v-471.414c0 -11.4287 4.81055 -21.1426 14.4307 -29.1426c9.62109 -7.99902 21.3037 -11.999 35.0488 -11.999c13.7441 0 25.4268 4 35.0479 11.999c10.3076 8.57129 15.4619 18.2852 15.4619 29.1416v471.414
c0 11.4287 -5.1543 21.4287 -15.4619 30c-9.62109 8 -21.3037 12 -35.0479 12zM223.999 774v-65h-64v65h64zM67.999 774v-65h-64v65h64z" />
    <glyph glyph-name="multiply" unicode="&#xd7;" 
d="M10 428l58 57l-58 58l46 46l58 -58l57 58l46 -46l-58 -58l58 -57l-46 -46l-58 58l-57 -58z" />
    <glyph glyph-name="Oslash" unicode="&#xd8;" 
d="M65 -2l-65.002 0.000976562l13 62c-8.66699 15.333 -13 33 -13 53v550c0 31.333 11 58 33 80c22.667 22.667 49.334 34 80.001 34c16.667 0 32.334 -3.66699 47.001 -11l3 13h63l-13 -62c9.33301 -16.667 14 -34.667 14 -54v-550c0 -30.667 -11.333 -57.334 -34 -80.001
c-22 -22 -48.667 -33 -80 -33c-16.667 0 -32 3 -46 9zM112.998 712.001c-12 0 -23.333 -4.66699 -34 -14c-9.33301 -9.33301 -14 -21 -14 -35v-354l81 390c-8.66699 8.66699 -19.667 13 -33 13zM112.998 65.001c13.333 0 24.667 4.66699 34 14c10 10 15 21.333 15 34v355
l-81 -392c9.33301 -7.33301 20 -11 32 -11z" />
    <glyph glyph-name="Ugrave" unicode="&#xd9;" 
d="M227 777l0.00292969 -664.001c0 -30.667 -11.333 -57.334 -34 -80.001c-22 -22 -48.667 -33 -80 -33c-30.667 0 -57.334 11 -80.001 33c-22 22.667 -33 49.334 -33 80.001v664h65v-664c0 -13.333 4.66699 -24.666 14 -33.999s20.666 -14 33.999 -14
s24.666 4.66699 33.999 14c10 10 15 21.333 15 34v664h65zM127.003 855.999l-120 120h98l103 -120h-81z" />
    <glyph glyph-name="Uacute" unicode="&#xda;" 
d="M227 777l0.00292969 -664.001c0 -30.667 -11.333 -57.334 -34 -80.001c-22 -22 -48.667 -33 -80 -33c-30.667 0 -57.334 11 -80.001 33c-22 22.667 -33 49.334 -33 80.001v664h65v-664c0 -13.333 4.66699 -24.666 14 -33.999s20.666 -14 33.999 -14
s24.666 4.66699 33.999 14c10 10 15 21.333 15 34v664h65zM49.0029 855.999l103 120h98l-120 -120h-81z" />
    <glyph glyph-name="Ucircumflex" unicode="&#xdb;" 
d="M227 777l0.00292969 -664.001c0 -30.667 -11.333 -57.334 -34 -80.001c-22 -22 -48.667 -33 -80 -33c-30.667 0 -57.334 11 -80.001 33c-22 22.667 -33 49.334 -33 80.001v664h65v-664c0 -13.333 4.66699 -24.666 14 -33.999s20.666 -14 33.999 -14
s24.666 4.66699 33.999 14c10 10 15 21.333 15 34v664h65zM-0.99707 839.999l102 109h44l102 -109h-57l-71 52l-63 -52h-57z" />
    <glyph glyph-name="Udieresis" unicode="&#xdc;" 
d="M227 652.985l0.00292969 -558.021c0 -25.7725 -11.333 -48.1826 -34 -67.2314c-22 -18.4893 -48.667 -27.7334 -80 -27.7334c-30.667 -0 -57.334 9.24414 -80.001 27.7334c-22 19.0488 -33 41.459 -33 67.2314v558.021h65v-558.021
c0 -11.2061 4.66699 -20.7305 14 -28.5742c9.33301 -7.84277 20.666 -11.7646 33.999 -11.7646s24.666 3.92188 33.999 11.7646c10 8.4043 15 17.9287 15 28.5742v558.021h65zM222.003 775v-65h-64v65h64zM66.0029 775v-65h-64v65h64z" />
    <glyph glyph-name="Yacute" unicode="&#xdd;" 
d="M152 288v-288h-65v288l-87 489h66l54 -302l53 302h66zM49 856l103 120h98l-120 -120h-81z" />
    <glyph glyph-name="Thorn" unicode="&#xde;" 
d="M65 0h-65v777h65v-125h64c26.667 0 49.667 -9.66699 69 -29s29 -42 29 -68v-324c0 -26.667 -9.66699 -49.667 -29 -69c-19.333 -18.667 -42.333 -28 -69 -28h-64v-134zM65 587l0.000976562 -388.001h64c9.33301 0 17 3 23 9c6.66699 6.66699 10 14.334 10 23.001v324
c0 8 -3.33301 15.333 -10 22s-14.334 10 -23.001 10h-64z" />
    <glyph glyph-name="germandbls" unicode="&#xdf;" 
d="M227 227v-113.999v-16c0 -27.333 -9.66699 -50 -29 -68c-19.333 -19.333 -42.333 -29 -69 -29c-12.667 0 -25 2.66699 -37 8c-1.33301 0 -2.33301 0.166992 -3 0.5s-1.33398 0.5 -2.00098 0.5s-1 0.333008 -1 1c-8 4 -15 9 -21 15v-25h-65v663c0 31.333 11 58 33 80
c22.667 22.667 49.334 34 80.001 34c31.333 0 58 -11.333 80 -34c22.667 -22 34 -48.667 34 -80v-162c0 -32 -11.333 -58.333 -34 -79c0 -0.666992 -0.333008 -1 -1 -1l1 -1c22.667 -22.667 34 -49.334 34 -80.001v-113zM65 32.001l41.999 41.999l8 -6l2 -1
c6.66699 -1.33301 10.667 -2 12 -2c9.33301 0 17 3 23 9c6.66699 6.66699 10 14.334 10 23.001v16v114v113c0 12.667 -5 24 -15 34c-9.33301 9.33301 -20.666 14 -33.999 14v65c13.333 0 24.666 4.66699 33.999 14c10 10 15 21.333 15 34v162c0 13.333 -5 25 -15 35
c-9.33301 9.33301 -20.666 14 -33.999 14c-12 0 -23.333 -4.66699 -34 -14c-9.33301 -9.33301 -14 -21 -14 -35v-631z" />
    <glyph glyph-name="agrave" unicode="&#xe0;" 
d="M227 -3l-65.001 -0.000976562v14c-16.667 -7.33301 -33 -11 -49 -11c-30.667 0 -57.334 11 -80.001 33c-22 22.667 -33 49.334 -33 80.001c0 76.667 14 130.667 42 162c29.333 32.667 67.666 64.667 114.999 96c-0.666992 0 1 0.666992 5 2v31c0 13.333 -5 25 -15 35
c-9.33301 9.33301 -20.666 14 -33.999 14s-24.666 -4.66699 -33.999 -14s-14 -21 -14 -35h-65c0 31.333 11 58 33 80c22.667 22.667 49.334 34 80.001 34c31.333 0 58 -11.333 80 -34c22.667 -22 34 -48.667 34 -80v-407zM161.999 294.999
c-30.667 -21.333 -54.3311 -44.334 -70.998 -69.001c-17.333 -25.333 -26 -63 -26 -113c0 -13.333 4.66699 -24.666 14 -33.999s20.666 -14 33.999 -14s24.666 4.66699 33.999 14c10 10 15 21.333 15 34v182zM102.002 596.998l-120 120h98l103 -120h-81z" />
    <glyph glyph-name="aacute" unicode="&#xe1;" 
d="M227 -3l-65.001 -0.000976562v14c-16.667 -7.33301 -33 -11 -49 -11c-30.667 0 -57.334 11 -80.001 33c-22 22.667 -33 49.334 -33 80.001c0 76.667 14 130.667 42 162c29.333 32.667 67.666 64.667 114.999 96c-0.666992 0 1 0.666992 5 2v31c0 13.333 -5 25 -15 35
c-9.33301 9.33301 -20.666 14 -33.999 14s-24.666 -4.66699 -33.999 -14s-14 -21 -14 -35h-65c0 31.333 11 58 33 80c22.667 22.667 49.334 34 80.001 34c31.333 0 58 -11.333 80 -34c22.667 -22 34 -48.667 34 -80v-407zM161.999 294.999
c-30.667 -21.333 -54.3311 -44.334 -70.998 -69.001c-17.333 -25.333 -26 -63 -26 -113c0 -13.333 4.66699 -24.666 14 -33.999s20.666 -14 33.999 -14s24.666 4.66699 33.999 14c10 10 15 21.333 15 34v182zM49.002 596.998l103 120h98l-120 -120h-81z" />
    <glyph glyph-name="acircumflex" unicode="&#xe2;" 
d="M227 -3l-65.001 -0.000976562v14c-16.667 -7.33301 -33 -11 -49 -11c-30.667 0 -57.334 11 -80.001 33c-22 22.667 -33 49.334 -33 80.001c0 76.667 14 130.667 42 162c29.333 32.667 67.666 64.667 114.999 96c-0.666992 0 1 0.666992 5 2v31c0 13.333 -5 25 -15 35
c-9.33301 9.33301 -20.666 14 -33.999 14s-24.666 -4.66699 -33.999 -14s-14 -21 -14 -35h-65c0 31.333 11 58 33 80c22.667 22.667 49.334 34 80.001 34c31.333 0 58 -11.333 80 -34c22.667 -22 34 -48.667 34 -80v-407zM161.999 294.999
c-30.667 -21.333 -54.3311 -44.334 -70.998 -69.001c-17.333 -25.333 -26 -63 -26 -113c0 -13.333 4.66699 -24.666 14 -33.999s20.666 -14 33.999 -14s24.666 4.66699 33.999 14c10 10 15 21.333 15 34v182zM0.00195312 580.998l102 109h44l102 -109h-57l-71 52l-63 -52
h-57z" />
    <glyph glyph-name="atilde" unicode="&#xe3;" 
d="M227 -3l-65.001 -0.000976562v14c-16.667 -7.33301 -33 -11 -49 -11c-30.667 0 -57.334 11 -80.001 33c-22 22.667 -33 49.334 -33 80.001c0 76.667 14 130.667 42 162c29.333 32.667 67.666 64.667 114.999 96c-0.666992 0 1 0.666992 5 2v31c0 13.333 -5 25 -15 35
c-9.33301 9.33301 -20.666 14 -33.999 14s-24.666 -4.66699 -33.999 -14s-14 -21 -14 -35h-65c0 31.333 11 58 33 80c22.667 22.667 49.334 34 80.001 34c31.333 0 58 -11.333 80 -34c22.667 -22 34 -48.667 34 -80v-407zM161.999 294.999
c-30.667 -21.333 -54.3311 -44.334 -70.998 -69.001c-17.333 -25.333 -26 -63 -26 -113c0 -13.333 4.66699 -24.666 14 -33.999s20.666 -14 33.999 -14s24.666 4.66699 33.999 14c10 10 15 21.333 15 34v182zM-18.998 568.998c5.33301 32 14.998 57.668 28.998 77.001
c16 18.667 36.333 28 61 28c5.33301 0 10.333 -0.5 15 -1.5s9.66699 -2.16699 15 -3.5c10.667 -3.33301 22.667 -9 36 -17c4 -2.66699 11.333 -5.66699 22 -9c8 -4.66699 16.333 -7 25 -7h3c5.33301 0 9.83301 0.833008 13.5 2.5s7.5 4.16699 11.5 7.5
c6.66699 6 12.334 17.333 17.001 34h40c-4 -29.333 -12.333 -53 -25 -71c-13.333 -22 -34 -33 -62 -33c-10 0 -19.333 1.66699 -28 5c-3.33301 1.33301 -8.16602 3 -14.499 5s-12.5 4.33301 -18.5 7c-22 11.333 -41.667 17.333 -59 18c-8 0 -15.667 -2.33301 -23 -7
c-10.667 -6.66699 -16.667 -18.334 -18 -35.001h-40z" />
    <glyph glyph-name="adieresis" unicode="&#xe4;" 
d="M227 -3l-65.001 -0.000976562v14c-16.667 -7.33301 -33 -11 -49 -11c-30.667 0 -57.334 11 -80.001 33c-22 22.667 -33 49.334 -33 80.001c0 76.667 14 130.667 42 162c29.333 32.667 67.666 64.667 114.999 96c-0.666992 0 1 0.666992 5 2v31c0 13.333 -5 25 -15 35
c-9.33301 9.33301 -20.666 14 -33.999 14s-24.666 -4.66699 -33.999 -14s-14 -21 -14 -35h-65c0 31.333 11 58 33 80c22.667 22.667 49.334 34 80.001 34c31.333 0 58 -11.333 80 -34c22.667 -22 34 -48.667 34 -80v-407zM161.999 294.999
c-30.667 -21.333 -54.3311 -44.334 -70.998 -69.001c-17.333 -25.333 -26 -63 -26 -113c0 -13.333 4.66699 -24.666 14 -33.999s20.666 -14 33.999 -14s24.666 4.66699 33.999 14c10 10 15 21.333 15 34v182zM232.002 711.998v-65h-64v65h64zM76.002 711.998v-65h-64v65h64z
" />
    <glyph glyph-name="aring" unicode="&#xe5;" 
d="M227 -3h-65.001v14c-16.667 -7.33301 -33 -11 -49 -11c-30.667 -0 -57.334 11.333 -80.001 34c-22 22 -33 48.333 -33 79c0 76.667 14 130.667 42 162c29.333 32.667 67.666 64.667 114.999 96c-0.666992 0 1 0.666992 5 2v31c0 13.333 -5 25 -15 35
c-9.33301 9.33301 -20.666 14 -33.999 14s-24.666 -4.66699 -33.999 -14s-14 -21 -14 -35h-65c0 31.333 11 58 33 80c22.667 22.667 49.334 34 80.001 34c31.333 0 58.333 -11.333 81 -34c22 -22 33 -48.667 33 -80v-407zM161.999 295
c-30.667 -21.333 -54.3311 -44.334 -70.998 -69.001c-17.333 -25.333 -26 -63 -26 -113c0 -13.333 4.66699 -24.666 14 -33.999s20.666 -14 33.999 -14s24.666 4.66699 33.999 14c10 10 15 21.333 15 34v182zM119.002 769.999c31.333 0 58.333 -11.332 81 -33.999
c22 -22 33 -48.667 33 -80c0 -30.667 -11.333 -57.334 -34 -80.001c-22 -22 -48.667 -33 -80 -33c-30.667 0 -57.334 11.333 -80.001 34c-22 22 -33 48.333 -33 79c0 31.333 11 58 33 80c22.667 22.667 49.334 34 80.001 34zM119.002 705
c-13.333 0 -24.666 -4.66797 -33.999 -14.001s-14 -21 -14 -35c0 -13.333 4.66699 -24.666 14 -33.999s20.666 -14 33.999 -14s24.666 4.66699 33.999 14c10 10 15 21.333 15 34c0 13.333 -5 25 -15 35c-9.33301 9.33301 -20.666 14 -33.999 14z" />
    <glyph glyph-name="ae" unicode="&#xe6;" horiz-adv-x="462" 
d="M359 33c-4 -4 -7.00293 -6.67285 -9.00293 -8.00586c-4 -2.66699 -6.83301 -4.66699 -8.5 -6s-2.16699 -1.66602 -1.5 -0.999023c-19.333 -12 -39.666 -18 -60.999 -18c-30.667 0 -57.334 11 -80.001 33l-8 8l-16 -19l-20 -11c-11.333 -7.33301 -25.333 -11 -42 -11
c-30.667 0 -57.334 11 -80.001 33c-22 22.667 -33 49.334 -33 80.001c0 76.667 14 130.667 42 162c29.333 32.667 67.666 64.667 114.999 96h2l3 2v31c0 13.333 -5 25 -15 35c-9.33301 9.33301 -20.666 14 -33.999 14s-24.666 -4.66699 -33.999 -14s-14 -21 -14 -35h-65
c0 31.333 11 58 33 80c22.667 22.667 49.334 34 80.001 34c31.333 0 58 -11.333 80 -34l3 -3l3 3c22.667 22.667 49.334 34 80.001 34c31.333 0 58 -11.333 80 -34c22.667 -22 34 -48.667 34 -80v-177h-162v-114c0 -13.333 4.66699 -24.666 14 -33.999
s20.666 -14 33.999 -14c8.66699 0 17.334 2.33301 26.001 7c0.666992 0 1.33398 0.333008 2.00098 1s1.66699 1.33398 3 2.00098c0.666992 0.666992 1.16699 1.33398 1.5 2.00098s0.833008 1.33398 1.5 2.00098zM161.997 294.994
c-30.667 -21.333 -54.3311 -44.334 -70.998 -69.001c-17.333 -25.333 -26 -63 -26 -113c0 -13.333 4.66699 -24.666 14 -33.999s20.666 -14 33.999 -14s24.666 4.66699 33.999 14c10 10 15 21.333 15 34v182zM328 290.993l-0.00195312 113c0 13.333 -5 25 -15 35
c-9.33301 9.33301 -20.666 14 -33.999 14s-24.666 -4.66699 -33.999 -14s-14 -21 -14 -35v-113h97z" />
    <glyph glyph-name="ccedilla" unicode="&#xe7;" 
d="M193 33c-4 -4 -7.00391 -6.67285 -9.00391 -8.00586c-4 -2.66699 -6.83301 -4.66699 -8.5 -6s-2.16699 -1.66602 -1.5 -0.999023c-8.66699 -6 -19 -10.667 -31 -14v-35l-65 -65v101c-16 4.66699 -31 14 -45 28c-22 22.667 -33 49.334 -33 80.001v291
c0 31.333 11 58 33 80c22.667 22.667 49.334 34 80.001 34c31.333 0 58 -11.333 80 -34c22.667 -22 34 -48.667 34 -80v-177h-65v177c0 13.333 -5 25 -15 35c-9.33301 9.33301 -20.666 14 -33.999 14s-24.666 -4.66699 -33.999 -14s-14 -21 -14 -35v-291
c0 -13.333 4.66699 -24.666 14 -33.999s20.666 -14 33.999 -14c8.66699 0 17.334 2.33301 26.001 7c0.666992 0 1.33398 0.333008 2.00098 1s1.66699 1.33398 3 2.00098c0.666992 0.666992 1.16699 1.33398 1.5 2.00098s0.833008 1.33398 1.5 2.00098z" />
    <glyph glyph-name="egrave" unicode="&#xe8;" horiz-adv-x="298" 
d="M193 33c-4 -4 -7.00195 -6.67285 -9.00195 -8.00586c-4 -2.66699 -6.83301 -4.66699 -8.5 -6s-2.16699 -1.66602 -1.5 -0.999023c-19.333 -12 -39.666 -18 -60.999 -18c-30.667 0 -57.334 11 -80.001 33c-22 22.667 -33 49.334 -33 80.001v291c0 31.333 11 58 33 80
c22.667 22.667 49.334 34 80.001 34c31.333 0 58 -11.333 80 -34c22.667 -22 34 -48.667 34 -80v-177h-162v-114c0 -13.333 4.66699 -24.666 14 -33.999s20.666 -14 33.999 -14c8.66699 0 17.334 2.33301 26.001 7c0.666992 0 1.33398 0.333008 2.00098 1
s1.66699 1.33398 3 2.00098c0.666992 0.666992 1.16699 1.33398 1.5 2.00098s0.833008 1.33398 1.5 2.00098zM161.998 290.994l-0.00195312 113c0 13.333 -5 25 -15 35c-9.33301 9.33301 -20.666 14 -33.999 14s-24.666 -4.66699 -33.999 -14s-14 -21 -14 -35v-113h97z
M123.996 596.994l-120 120h98l103 -120h-81z" />
    <glyph glyph-name="eacute" unicode="&#xe9;" horiz-adv-x="298" 
d="M193 33c-4 -4 -7.00195 -6.67285 -9.00195 -8.00586c-4 -2.66699 -6.83301 -4.66699 -8.5 -6s-2.16699 -1.66602 -1.5 -0.999023c-19.333 -12 -39.666 -18 -60.999 -18c-30.667 0 -57.334 11 -80.001 33c-22 22.667 -33 49.334 -33 80.001v291c0 31.333 11 58 33 80
c22.667 22.667 49.334 34 80.001 34c31.333 0 58 -11.333 80 -34c22.667 -22 34 -48.667 34 -80v-177h-162v-114c0 -13.333 4.66699 -24.666 14 -33.999s20.666 -14 33.999 -14c8.66699 0 17.334 2.33301 26.001 7c0.666992 0 1.33398 0.333008 2.00098 1
s1.66699 1.33398 3 2.00098c0.666992 0.666992 1.16699 1.33398 1.5 2.00098s0.833008 1.33398 1.5 2.00098zM161.998 290.994l-0.00195312 113c0 13.333 -5 25 -15 35c-9.33301 9.33301 -20.666 14 -33.999 14s-24.666 -4.66699 -33.999 -14s-14 -21 -14 -35v-113h97z
M47.9961 596.994l103 120h98l-120 -120h-81z" />
    <glyph glyph-name="ecircumflex" unicode="&#xea;" horiz-adv-x="298" 
d="M193 33c-4 -4 -7.00195 -6.67285 -9.00195 -8.00586c-4 -2.66699 -6.83301 -4.66699 -8.5 -6s-2.16699 -1.66602 -1.5 -0.999023c-19.333 -12 -39.666 -18 -60.999 -18c-30.667 0 -57.334 11 -80.001 33c-22 22.667 -33 49.334 -33 80.001v291c0 31.333 11 58 33 80
c22.667 22.667 49.334 34 80.001 34c31.333 0 58 -11.333 80 -34c22.667 -22 34 -48.667 34 -80v-177h-162v-114c0 -13.333 4.66699 -24.666 14 -33.999s20.666 -14 33.999 -14c8.66699 0 17.334 2.33301 26.001 7c0.666992 0 1.33398 0.333008 2.00098 1
s1.66699 1.33398 3 2.00098c0.666992 0.666992 1.16699 1.33398 1.5 2.00098s0.833008 1.33398 1.5 2.00098zM161.998 290.994l-0.00195312 113c0 13.333 -5 25 -15 35c-9.33301 9.33301 -20.666 14 -33.999 14s-24.666 -4.66699 -33.999 -14s-14 -21 -14 -35v-113h97z
M-4.00391 574.994l102 109h44l102 -109h-57l-71 52l-63 -52h-57z" />
    <glyph glyph-name="edieresis" unicode="&#xeb;" 
d="M193 33c-4 -4 -7.00195 -6.67285 -9.00195 -8.00586c-4 -2.66699 -6.83301 -4.66699 -8.5 -6s-2.16699 -1.66602 -1.5 -0.999023c-19.333 -12 -39.666 -18 -60.999 -18c-30.667 0 -57.334 11 -80.001 33c-22 22.667 -33 49.334 -33 80.001v291c0 31.333 11 58 33 80
c22.667 22.667 49.334 34 80.001 34c31.333 0 58 -11.333 80 -34c22.667 -22 34 -48.667 34 -80v-177h-162v-114c0 -13.333 4.66699 -24.666 14 -33.999s20.666 -14 33.999 -14c8.66699 0 17.334 2.33301 26.001 7c0.666992 0 1.33398 0.333008 2.00098 1
s1.66699 1.33398 3 2.00098c0.666992 0.666992 1.16699 1.33398 1.5 2.00098s0.833008 1.33398 1.5 2.00098zM161.998 290.994l-0.00195312 113c0 13.333 -5 25 -15 35c-9.33301 9.33301 -20.666 14 -33.999 14s-24.666 -4.66699 -33.999 -14s-14 -21 -14 -35v-113h97z
M228.996 711.994v-65h-64v65h64zM72.9961 711.994v-65h-64v65h64z" />
    <glyph glyph-name="igrave" unicode="&#xec;" horiz-adv-x="137" 
d="M65 0h-64v518h64v-518zM23 597l-120 120h98l103 -120h-81z" />
    <glyph glyph-name="iacute" unicode="&#xed;" horiz-adv-x="137" 
d="M65 0h-64v518h64v-518zM-32 597l103 120h98l-120 -120h-81z" />
    <glyph glyph-name="icircumflex" unicode="&#xee;" horiz-adv-x="137" 
d="M65 0h-64v518h64v-518zM-87 606l102 109h44l102 -109h-57l-71 52l-63 -52h-57z" />
    <glyph glyph-name="idieresis" unicode="&#xef;" horiz-adv-x="137" 
d="M65 0h-64v518h64v-518zM144 714v-65h-64v65h64zM-12 714v-65h-64v65h64z" />
    <glyph glyph-name="eth" unicode="&#xf0;" 
d="M258 573h-30.999v-460c0 -30.667 -11 -57.334 -33 -80.001c-23.333 -22 -50 -33 -80 -33c-31.333 0 -58 11 -80 33c-22.667 22.667 -34 49.334 -34 80.001v291c0 31.333 11.333 58 34 80c22 22.667 48.667 34 80 34c16 0 32 -3.66699 48 -11v66h-40v65h40v25
c0 14 -4.66699 25.667 -14 35c-10.667 9.33301 -22 14 -34 14c-6.66699 0 -13.334 -1.66699 -20.001 -5h-2l-12 -9l-46 45c6 6.66699 15.667 14 29 22c1.33301 0 3.66602 1 6.99902 3c16 6 30.667 9 44 9c30.667 0 57.334 -11.333 80.001 -34c22 -22 33 -48.667 33 -80v-25
h31v-65zM162.001 404c0 14 -4.66699 25.668 -14 35.001s-20.666 14 -33.999 14s-24.666 -4.66699 -33.999 -14c-10 -10 -15 -21.667 -15 -35v-291c0 -12.667 5 -24 15 -34c9.33301 -9.33301 20.666 -14 33.999 -14s24.666 4.66699 33.999 14s14 20.666 14 33.999v291z" />
    <glyph glyph-name="ntilde" unicode="&#xf1;" 
d="M0 0l-0.00195312 518h65v-11c16 7.33301 32 11 48 11c31.333 0 58 -11.333 80 -34c22.667 -22 34 -48.667 34 -80v-404h-65v404c0 13.333 -5 25 -15 35c-9.33301 9.33301 -20.666 14 -33.999 14s-24.666 -4.66699 -33.999 -14s-14 -21 -14 -35v-404h-65zM-29.002 572
c5.33301 32 14.998 57.668 28.998 77.001c16 18.667 36.333 28 61 28c5.33301 0 10.333 -0.5 15 -1.5s9.66699 -2.16699 15 -3.5c10.667 -3.33301 22.667 -9 36 -17c4 -2.66699 11.333 -5.66699 22 -9c8 -4.66699 16.333 -7 25 -7h3c5.33301 0 9.83301 0.833008 13.5 2.5
s7.5 4.16699 11.5 7.5c6.66699 6 12.334 17.333 17.001 34h40c-4 -29.333 -12.333 -53 -25 -71c-13.333 -22 -34 -33 -62 -33c-10 0 -19.333 1.66699 -28 5c-3.33301 1.33301 -8.16602 3 -14.499 5s-12.5 4.33301 -18.5 7c-22 11.333 -41.667 17.333 -59 18
c-8 0 -15.667 -2.33301 -23 -7c-10.667 -6.66699 -16.667 -18.334 -18 -35.001h-40z" />
    <glyph glyph-name="ograve" unicode="&#xf2;" 
d="M113 518c31.333 0 58 -11.333 80 -34c22.667 -22 34 -48.667 34 -80v-291c0 -30.667 -11.333 -57.334 -34 -80.001c-22 -22 -48.667 -33 -80 -33c-30.667 0 -57.334 11 -80.001 33c-22 22.667 -33 49.334 -33 80.001v291c0 31.333 11 58 33 80
c22.667 22.667 49.334 34 80.001 34zM113 453c-13.333 0 -24.666 -4.66797 -33.999 -14.001s-14 -21 -14 -35v-291c0 -13.333 4.66699 -24.666 14 -33.999s20.666 -14 33.999 -14s24.666 4.66699 33.999 14c10 10 15 21.333 15 34v291c0 13.333 -5 25 -15 35
c-9.33301 9.33301 -20.666 14 -33.999 14zM110 596.999l-120 120h98l103 -120h-81z" />
    <glyph glyph-name="oacute" unicode="&#xf3;" 
d="M113 518c31.333 0 58 -11.333 80 -34c22.667 -22 34 -48.667 34 -80v-291c0 -30.667 -11.333 -57.334 -34 -80.001c-22 -22 -48.667 -33 -80 -33c-30.667 0 -57.334 11 -80.001 33c-22 22.667 -33 49.334 -33 80.001v291c0 31.333 11 58 33 80
c22.667 22.667 49.334 34 80.001 34zM113 453c-13.333 0 -24.666 -4.66797 -33.999 -14.001s-14 -21 -14 -35v-291c0 -13.333 4.66699 -24.666 14 -33.999s20.666 -14 33.999 -14s24.666 4.66699 33.999 14c10 10 15 21.333 15 34v291c0 13.333 -5 25 -15 35
c-9.33301 9.33301 -20.666 14 -33.999 14zM49 596.999l103 120h98l-120 -120h-81z" />
    <glyph glyph-name="ocircumflex" unicode="&#xf4;" 
d="M113 518c31.333 0 58 -11.333 80 -34c22.667 -22 34 -48.667 34 -80v-291c0 -30.667 -11.333 -57.334 -34 -80.001c-22 -22 -48.667 -33 -80 -33c-30.667 0 -57.334 11 -80.001 33c-22 22.667 -33 49.334 -33 80.001v291c0 31.333 11 58 33 80
c22.667 22.667 49.334 34 80.001 34zM113 453c-13.333 0 -24.666 -4.66797 -33.999 -14.001s-14 -21 -14 -35v-291c0 -13.333 4.66699 -24.666 14 -33.999s20.666 -14 33.999 -14s24.666 4.66699 33.999 14c10 10 15 21.333 15 34v291c0 13.333 -5 25 -15 35
c-9.33301 9.33301 -20.666 14 -33.999 14zM0 580.999l102 109h44l102 -109h-57l-71 52l-63 -52h-57z" />
    <glyph glyph-name="otilde" unicode="&#xf5;" 
d="M113 518c31.333 0 58 -11.333 80 -34c22.667 -22 34 -48.667 34 -80v-291c0 -30.667 -11.333 -57.334 -34 -80.001c-22 -22 -48.667 -33 -80 -33c-30.667 0 -57.334 11 -80.001 33c-22 22.667 -33 49.334 -33 80.001v291c0 31.333 11 58 33 80
c22.667 22.667 49.334 34 80.001 34zM113 453c-13.333 0 -24.666 -4.66797 -33.999 -14.001s-14 -21 -14 -35v-291c0 -13.333 4.66699 -24.666 14 -33.999s20.666 -14 33.999 -14s24.666 4.66699 33.999 14c10 10 15 21.333 15 34v291c0 13.333 -5 25 -15 35
c-9.33301 9.33301 -20.666 14 -33.999 14zM-24 568.999c5.33301 32 14.998 57.668 28.998 77.001c16 18.667 36.333 28 61 28c5.33301 0 10.333 -0.5 15 -1.5s9.66699 -2.16699 15 -3.5c10.667 -3.33301 22.667 -9 36 -17c4 -2.66699 11.333 -5.66699 22 -9
c8 -4.66699 16.333 -7 25 -7h3c5.33301 0 9.83301 0.833008 13.5 2.5s7.5 4.16699 11.5 7.5c6.66699 6 12.334 17.333 17.001 34h40c-4 -29.333 -12.333 -53 -25 -71c-13.333 -22 -34 -33 -62 -33c-10 0 -19.333 1.66699 -28 5c-3.33301 1.33301 -8.16602 3 -14.499 5
s-12.5 4.33301 -18.5 7c-22 11.333 -41.667 17.333 -59 18c-8 0 -15.667 -2.33301 -23 -7c-10.667 -6.66699 -16.667 -18.334 -18 -35.001h-40z" />
    <glyph glyph-name="odieresis" unicode="&#xf6;" 
d="M113 518c31.333 0 58 -11.333 80 -34c22.667 -22 34 -48.667 34 -80v-291c0 -30.667 -11.333 -57.334 -34 -80.001c-22 -22 -48.667 -33 -80 -33c-30.667 0 -57.334 11 -80.001 33c-22 22.667 -33 49.334 -33 80.001v291c0 31.333 11 58 33 80
c22.667 22.667 49.334 34 80.001 34zM113 453c-13.333 0 -24.666 -4.66797 -33.999 -14.001s-14 -21 -14 -35v-291c0 -13.333 4.66699 -24.666 14 -33.999s20.666 -14 33.999 -14s24.666 4.66699 33.999 14c10 10 15 21.333 15 34v291c0 13.333 -5 25 -15 35
c-9.33301 9.33301 -20.666 14 -33.999 14zM216 711.999v-65h-64v65h64zM60 711.999v-65h-64v65h64z" />
    <glyph glyph-name="divide" unicode="&#xf7;" 
d="M0 518h227v-65h-227v65zM142 638v-65h-65v65h65zM142 397v-65h-65v65h65z" />
    <glyph glyph-name="oslash" unicode="&#xf8;" 
d="M65 0h-65l16 53c-10.667 17.333 -16 37.333 -16 60v291c0 31.333 11 58 33 80c22.667 22.667 49.334 34 80.001 34c17.333 0 32.666 -3.33301 45.999 -10l2 7h63l-16 -50c12.667 -17.333 19 -37.666 19 -60.999v-291c0 -30.667 -11.333 -57.334 -34 -80.001
c-22 -22 -48.667 -33 -80 -33c-16 0 -31 3 -45 9zM113 65c13.333 0 24.667 4.66699 34 14c10 10 15 21.333 15 34v201l-75 -242c7.33301 -4.66699 16 -7 26 -7zM113.001 453c-13.333 0 -24.667 -4.66699 -34 -14s-14 -21 -14 -35v-196l74 237c-7.33301 5.33301 -16 8 -26 8z
" />
    <glyph glyph-name="ugrave" unicode="&#xf9;" 
d="M227 518l0.00292969 -518.002h-65v11c-16.667 -7.33301 -33 -11 -49 -11c-30.667 0 -57.334 11 -80.001 33c-22 22.667 -33 49.334 -33 80.001v405h65v-405c0 -13.333 4.66699 -24.666 14 -33.999s20.666 -14 33.999 -14s24.666 4.66699 33.999 14c10 10 15 21.333 15 34
v405h65zM126.003 596.998l-120 120h98l103 -120h-81z" />
    <glyph glyph-name="uacute" unicode="&#xfa;" 
d="M227 518l0.00292969 -518.002h-65v11c-16.667 -7.33301 -33 -11 -49 -11c-30.667 0 -57.334 11 -80.001 33c-22 22.667 -33 49.334 -33 80.001v405h65v-405c0 -13.333 4.66699 -24.666 14 -33.999s20.666 -14 33.999 -14s24.666 4.66699 33.999 14c10 10 15 21.333 15 34
v405h65zM49.0029 596.998l103 120h98l-120 -120h-81z" />
    <glyph glyph-name="ucircumflex" unicode="&#xfb;" 
d="M227 518l0.00292969 -518.002h-65v11c-16.667 -7.33301 -33 -11 -49 -11c-30.667 0 -57.334 11 -80.001 33c-22 22.667 -33 49.334 -33 80.001v405h65v-405c0 -13.333 4.66699 -24.666 14 -33.999s20.666 -14 33.999 -14s24.666 4.66699 33.999 14c10 10 15 21.333 15 34
v405h65zM0.00292969 580.998l102 109h44l102 -109h-57l-71 52l-63 -52h-57z" />
    <glyph glyph-name="udieresis" unicode="&#xfc;" 
d="M227 518l0.00292969 -518.002h-65v11c-16.667 -7.33301 -33 -11 -49 -11c-30.667 0 -57.334 11 -80.001 33c-22 22.667 -33 49.334 -33 80.001v405h65v-405c0 -13.333 4.66699 -24.666 14 -33.999s20.666 -14 33.999 -14s24.666 4.66699 33.999 14c10 10 15 21.333 15 34
v405h65zM223.003 711.998v-65h-64v65h64zM67.0029 711.998v-65h-64v65h64z" />
    <glyph glyph-name="yacute" unicode="&#xfd;" 
d="M0 518l70 -0.000976562l43 -289l44 289h70l-89 -572l2 -3c-8 -31.333 -19.667 -55.666 -35 -72.999c-21.333 -21.333 -51 -32 -89 -32v65c20.667 0 35 4 43 12c6.66699 8.66699 12.667 22.667 18 42l7 43zM49 596.999l103 120h98l-120 -120h-81z" />
    <glyph glyph-name="thorn" unicode="&#xfe;" 
d="M113 518c31.333 0 58 -11.332 80 -33.999c22.667 -22 34 -48.667 34 -80v-291c0 -30.667 -11.333 -57.334 -34 -80.001c-22 -22 -48.667 -33 -80 -33c-16 0 -32 3.66699 -48 11v-172h-65v938h65v-270c16 7.33301 32 11 48 11zM113 453.001
c-13.333 0 -24.666 -4.66797 -33.999 -14.001s-14 -21 -14 -35v-291c0 -13.333 4.66699 -24.666 14 -33.999s20.666 -14 33.999 -14s24.666 4.66699 33.999 14c10 10 15 21.333 15 34v291c0 13.333 -5 25 -15 35c-9.33301 9.33301 -20.666 14 -33.999 14z" />
    <glyph glyph-name="ydieresis" unicode="&#xff;" 
d="M0 518l70 -0.000976562l43 -289l44 289h70l-89 -572l2 -3c-8 -31.333 -19.667 -55.666 -35 -72.999c-21.333 -21.333 -51 -32 -89 -32v65c20.667 0 35 4 43 12c6.66699 8.66699 12.667 22.667 18 42l7 43zM215 711.999v-65h-64v65h64zM59 711.999v-65h-64v65h64z" />
    <glyph glyph-name="OE" unicode="&#x152;" horiz-adv-x="467" 
d="M227 453l129.001 -0.000976562v-65h-129v-323h162v-65h-227v10c-14 -6.66699 -30.333 -10 -49 -10c-30.667 0 -57.334 11 -80.001 33c-22 22.667 -33 49.334 -33 80.001v550c0 31.333 11 58 33 80c22.667 22.667 49.334 34 80.001 34c17.333 0 33.666 -4 48.999 -12v12
h227v-65h-162v-259zM113.001 711.999c-12 0 -23.332 -4.66797 -33.999 -14.001c-9.33301 -9.33301 -14 -21 -14 -35v-550c0 -13.333 4.66699 -24.666 14 -33.999s20.666 -14 33.999 -14s24.666 4.66699 33.999 14c10 10 15 21.333 15 34v554
c-1.33301 12 -6.33301 22.333 -15 31c-9.33301 9.33301 -20.666 14 -33.999 14z" />
    <glyph glyph-name="oe" unicode="&#x153;" horiz-adv-x="469" 
d="M355 33c-4 -4 -7.00098 -6.67188 -9.00098 -8.00488c-4 -2.66699 -6.83301 -4.66699 -8.5 -6s-2.16699 -1.66602 -1.5 -0.999023c-19.333 -12 -39.666 -18 -60.999 -18c-30.667 0 -57.334 11 -80.001 33c-23.333 -22 -50.666 -33 -81.999 -33
c-30.667 0 -57.334 11 -80.001 33c-22 22.667 -33 49.334 -33 80.001v291c0 31.333 11 58 33 80c22.667 22.667 49.334 34 80.001 34c31.333 0 58 -11.333 80 -34c23.333 22.667 50.666 34 81.999 34s58 -11.333 80 -34c22.667 -22 34 -48.667 34 -80v-177h-162v-119
c1.33301 -12 6 -21.667 14 -29c9.33301 -9.33301 20.666 -14 33.999 -14c8.66699 0 17.334 2.33301 26.001 7c0.666992 0 1.33398 0.333008 2.00098 1s1.66699 1.33398 3 2.00098c0.666992 0.666992 1.16699 1.33398 1.5 2.00098s0.833008 1.33398 1.5 2.00098z
M112.999 452.995c-13.333 0 -24.666 -4.66797 -33.999 -14.001s-14 -21 -14 -35v-291c0 -13.333 4.66699 -24.666 14 -33.999s20.666 -14 33.999 -14s24.666 4.66699 33.999 14s14.333 19 15 29v296c0 13.333 -5 25 -15 35c-9.33301 9.33301 -20.666 14 -33.999 14z
M323.999 290.994l-0.00195312 113c0 13.333 -5 25 -15 35c-9.33301 9.33301 -20.666 14 -33.999 14s-24.666 -4.66699 -33.999 -14c-8 -8 -12.667 -18 -14 -30v-118h97z" />
    <glyph glyph-name="Scaron" unicode="&#x160;" 
d="M154 598v68.9971c0 4.66699 -1.33301 10.667 -4 18c-0.666992 0.666992 -1 1.33398 -1 2.00098c-0.666992 2 -3.33398 6 -8.00098 12c-0.666992 0.666992 -1.33398 1.16699 -2.00098 1.5s-1.33398 0.833008 -2.00098 1.5s-1.33398 1.16699 -2.00098 1.5
s-1.33398 0.833008 -2.00098 1.5c-8.66699 4.66699 -16.667 7 -24 7c-8 0 -13.667 -1.33301 -17 -4c0 -0.666992 -0.333008 -1 -1 -1h-2c-4 -2 -7.66699 -4.66699 -11 -8c-2 -2 -3 -3.33301 -3 -4c-0.666992 -0.666992 -1.16699 -1.33398 -1.5 -2.00098
s-0.833008 -1.33398 -1.5 -2.00098c-4.66699 -6.66699 -7 -14.667 -7 -24v-69c0 -15.333 1.66699 -32.333 5 -51c3.33301 -14.667 8.66602 -30.667 15.999 -48c6 -16 13.5 -31.833 22.5 -47.5s18.5 -31.167 28.5 -46.5l17 -29.5
c4.66699 -8.33301 8.66699 -15.166 12 -20.499c4.66699 -8.66699 9 -17.167 13 -25.5l13 -26.5c6.66699 -16 13 -35.667 19 -59c4.66699 -18.667 7 -40.334 7 -65.001v-70c0 -14 -2.66699 -28 -8 -42c-1.33301 -3.33301 -2.33301 -5.33301 -3 -6
c-5.33301 -12.667 -12.333 -22.334 -21 -29.001c-21.333 -21.333 -47 -32 -77 -32c-15.333 0 -29.333 3 -42 9c-2.66699 1.33301 -5 2.33301 -7 3c-10 4.66699 -19.333 11.334 -28 20.001c-21.333 21.333 -32 47 -32 77v70h65v-70c0 -12 4.33301 -22.333 13 -31
c0.666992 -0.666992 1.83398 -1.66699 3.50098 -3l7.5 -6c0.666992 -0.666992 1.33398 -1 2.00098 -1h1c4.66699 -2 10.334 -3 17.001 -3c12.667 0 23.334 4.33301 32.001 13c3.33301 3.33301 6 7 8 11v2c0 0.666992 0.333008 1 1 1c2.66699 6 4 11.667 4 17v70
c0 18 -2 35 -6 51l-7.5 25.5c-2.33301 7.66699 -5.16602 14.834 -8.49902 21.501c-5.33301 14 -13 29.667 -23 47c-3.33301 5.33301 -7.16602 12 -11.499 20s-9.5 17 -15.5 27l-29.5 50.5c-9.66699 17 -18.167 34.5 -25.5 52.5c-9.33301 22 -16 41.667 -20 59
c-4.66699 22.667 -7 44.334 -7 65.001v69c0 20.667 5.66699 40.334 17 59.001c0.666992 1.33301 1.66699 2.83301 3 4.5s2.66602 3.5 3.99902 5.5c4.66699 4.66699 7.33398 7.66699 8.00098 9c8.66699 8.66699 18 15.334 28 20.001c2 0.666992 4.33301 1.66699 7 3
c14.667 6 28.667 9 42 9c20 0 39.667 -6 59 -18c2.66699 -2 6 -4.33301 10 -7c1.33301 -0.666992 4 -3 8 -7c8.66699 -9.33301 15.667 -19 21 -29l3 -6c5.33301 -14.667 8 -29 8 -43v-69h-64zM229 914.997l-102 -109h-44l-102 109h57l71 -52l63 52h57z" />
    <glyph glyph-name="scaron" unicode="&#x161;" horiz-adv-x="128" 
d="M229 915l-102 -109h-44l-102 109h57l71 -52l63 52h57zM0 -94l-0.00195312 759.999c0 30 11 56.667 33 80c22.667 22 49.334 33 80.001 33c16 0 30.667 -3 44 -9c2.66699 -1.33301 5 -2.33301 7 -3c12 -8 21.667 -15 29 -21l-46 -46
c-3.33301 2.66699 -7.33301 5.66699 -12 9h-3v1c-4.66699 2.66699 -11 4 -19 4c-13.333 0 -24.666 -4.66699 -33.999 -14s-14 -20.666 -14 -33.999v-760h-65z" />
    <glyph glyph-name="Ydieresis" unicode="&#x178;" 
d="M152 288v-288h-65v288l-87 489h66l54 -302l53 302h66zM229 904v-65h-64v65h64zM73 904v-65h-64v65h64z" />
    <glyph glyph-name="Zcaron" unicode="&#x17d;" 
d="M0 777h227v-66l-161 -646h161v-65h-227v67l160 645h-160v65zM229 915l-102 -109h-44l-102 109h57l71 -52l63 52h57z" />
    <glyph glyph-name="zcaron" unicode="&#x17e;" 
d="M70 65h157v-65h-227v65l157 388h-157v65h227v-65zM239 678l-102 -109h-44l-102 109h57l71 -52l63 52h57z" />
    <glyph glyph-name="florin" unicode="&#x192;" horiz-adv-x="261" 
d="M0 518l63.9961 0.00488281v151c0.666992 28 11.667 53.667 33 77c22 20.667 47.667 31.667 77 33c18 0 33.667 -3 47 -9c2.66699 -1.33301 5 -2.33301 7 -3c12 -8 21.667 -15 29 -21l-45 -46c-5.33301 4.66699 -9.66602 7.66699 -12.999 9
c-0.666992 0.666992 -1.66699 1 -3 1c-4.66699 2.66699 -11 4 -19 4c-13.333 0 -24.666 -4.66699 -33.999 -14c-9.33301 -11.333 -14 -22.333 -14 -33v-149h65v-65h-65v-453l-1 -13c0 -16.667 -3 -31.334 -9 -44.001c-1.33301 -2.66699 -2.33301 -5 -3 -7
c-5.33301 -11.333 -12.333 -21 -21 -29c-4.66699 -4.66699 -7.66699 -7.33398 -9 -8.00098c-2 -1.33301 -3.83301 -2.5 -5.5 -3.5s-3.16699 -2.5 -4.5 -4.5c-20 -12 -40.333 -18 -61 -18c-12.667 0 -27.334 3 -44.001 9c-3.33301 2 -5.33301 3 -6 3
c-13.333 7.33301 -23.333 14.666 -30 21.999l46 45l12 -9h2c10 -3.33301 16.667 -5 20 -5c8.66699 0 17.334 2.66699 26.001 8c0.666992 0.666992 1.33398 1.16699 2.00098 1.5s1.33398 0.833008 2.00098 1.5c0 2 1.33301 3 4 3c4.66699 5.33301 7.66699 9.66602 9 12.999
c1.33301 1.33301 2 2.33301 2 3c2.66699 7.33301 4 13.666 4 18.999v466h-64v65z" />
    <glyph glyph-name="circumflex" unicode="&#x2c6;" horiz-adv-x="586" 
d="M160 581l102 109h44l102 -109h-57l-71 52l-63 -52h-57z" />
    <glyph glyph-name="tilde" unicode="&#x2dc;" horiz-adv-x="391" 
d="M28 569c5.33301 32 14.998 57.668 28.998 77.001c16 18.667 36.333 28 61 28c5.33301 0 10.333 -0.5 15 -1.5s9.66699 -2.16699 15 -3.5c10.667 -3.33301 22.667 -9 36 -17c4 -2.66699 11.333 -5.66699 22 -9c8 -4.66699 16.333 -7 25 -7h3
c5.33301 0 9.83301 0.833008 13.5 2.5s7.5 4.16699 11.5 7.5c6.66699 6 12.334 17.333 17.001 34h40c-4 -29.333 -12.333 -53 -25 -71c-13.333 -22 -34 -33 -62 -33c-10 0 -19.333 1.66699 -28 5c-3.33301 1.33301 -8.16602 3 -14.499 5s-12.5 4.33301 -18.5 7
c-22 11.333 -41.667 17.333 -59 18c-8 0 -15.667 -2.33301 -23 -7c-10.667 -6.66699 -16.667 -18.334 -18 -35.001h-40z" />
    <glyph glyph-name="endash" unicode="&#x2013;" 
d="M0 518h227v-65h-227v65z" />
    <glyph glyph-name="emdash" unicode="&#x2014;" horiz-adv-x="444" 
d="M0 518h352v-65h-352v65z" />
    <glyph glyph-name="quoteleft" unicode="&#x2018;" horiz-adv-x="154" 
d="M0 680v96l65 65v-161h-65z" />
    <glyph glyph-name="quoteright" unicode="&#x2019;" horiz-adv-x="158" 
d="M65 841v-96l-65 -65v161h65z" />
    <glyph glyph-name="quotesinglbase" unicode="&#x201a;" horiz-adv-x="162" 
d="M65 65v-96l-65 -65v161h65z" />
    <glyph glyph-name="quotedblleft" unicode="&#x201c;" horiz-adv-x="279" 
d="M0 680v96l65 65v-161h-65zM132 680v96l65 65v-161h-65z" />
    <glyph glyph-name="quotedblright" unicode="&#x201d;" horiz-adv-x="279" 
d="M197 841v-96l-65 -65v161h65zM65 841v-96l-65 -65v161h65z" />
    <glyph glyph-name="quotedblbase" unicode="&#x201e;" horiz-adv-x="266" 
d="M191 65v-96l-65 -65v161h65zM65 65v-96l-65 -65v161h65z" />
    <glyph glyph-name="dagger" unicode="&#x2020;" horiz-adv-x="288" 
d="M0 738h81v104h63v-104h83v-65h-83v-738h-63v738h-81v65z" />
    <glyph glyph-name="daggerdbl" unicode="&#x2021;" horiz-adv-x="288" 
d="M0 101h81v572h-81v65h81v104h63v-104h83v-65h-83v-572h83v-65h-82v-101h-64v101h-81v65z" />
    <glyph glyph-name="bullet" unicode="&#x2022;" horiz-adv-x="244" 
d="M114 502c13.333 0 24.666 -4.66602 33.999 -13.999c10 -10 15 -21.667 15 -35v-73c0 -12.667 -5 -24 -15 -34c-9.33301 -9.33301 -20.666 -14 -33.999 -14s-24.666 4.66699 -33.999 14s-14 20.666 -14 33.999v73c0 14 4.66699 25.667 14 35s20.666 14 33.999 14z" />
    <glyph glyph-name="ellipsis" unicode="&#x2026;" horiz-adv-x="483" 
d="M65 65v-65h-65v65h65zM226 65v-65h-65v65h65zM387 65v-65h-65v65h65z" />
    <glyph glyph-name="perthousand" unicode="&#x2030;" horiz-adv-x="893" 
d="M114 779c31.333 0 58 -11.333 80 -34c22.667 -22 34 -48.667 34 -80v-73c0 -30.667 -11.333 -57.334 -34 -80.001c-22 -22 -48.667 -33 -80 -33c-30.667 0 -57.334 11 -80.001 33c-22 22.667 -33 49.334 -33 80.001v73c0 31.333 11 58 33 80
c22.667 22.667 49.334 34 80.001 34zM114 714c-13.333 0 -24.666 -4.66797 -33.999 -14.001s-14 -21 -14 -35v-73c0 -13.333 4.66699 -24.666 14 -33.999s20.666 -14 33.999 -14s24.666 4.66699 33.999 14c10 10 15 21.333 15 34v73c0 13.333 -5 25 -15 35
c-9.33301 9.33301 -20.666 14 -33.999 14zM85 -0.000976562h-85l455 777h85zM714 299.999c31.333 0 58 -11.333 80 -34c22.667 -22 34 -48.667 34 -80v-73c0 -30.667 -11.333 -57.334 -34 -80.001c-22 -22 -48.667 -33 -80 -33c-30.667 0 -57.334 11 -80.001 33
c-22 22.667 -33 49.334 -33 80.001v73c0 31.333 11 58 33 80c22.667 22.667 49.334 34 80.001 34zM714 234.999c-13.333 0 -24.666 -4.66797 -33.999 -14.001s-14 -21 -14 -35v-73c0 -13.333 4.66699 -24.666 14 -33.999s20.666 -14 33.999 -14s24.666 4.66699 33.999 14
c10 10 15 21.333 15 34v73c0 13.333 -5 25 -15 35c-9.33301 9.33301 -20.666 14 -33.999 14zM434 299.998c31.333 0 58 -11.333 80 -34c22.667 -22 34 -48.667 34 -80v-73c0 -30.667 -11.333 -57.334 -34 -80.001c-22 -22 -48.667 -33 -80 -33
c-30.667 0 -57.334 11 -80.001 33c-22 22.667 -33 49.334 -33 80.001v73c0 31.333 11 58 33 80c22.667 22.667 49.334 34 80.001 34zM434 234.998c-13.333 0 -24.666 -4.66797 -33.999 -14.001s-14 -21 -14 -35v-73c0 -13.333 4.66699 -24.666 14 -33.999
s20.666 -14 33.999 -14s24.666 4.66699 33.999 14c10 10 15 21.333 15 34v73c0 13.333 -5 25 -15 35c-9.33301 9.33301 -20.666 14 -33.999 14z" />
    <glyph glyph-name="guilsinglleft" unicode="&#x2039;" horiz-adv-x="216" 
d="M75 518h67l-79 -259l79 -259h-67l-80 259z" />
    <glyph glyph-name="guilsinglright" unicode="&#x203a;" horiz-adv-x="216" 
d="M62 0h-67l79 259l-79 259h67l80 -259z" />
    <glyph glyph-name="Euro" unicode="&#x20ac;" 
d="M113 777c31.333 0 58.001 -11.334 80.001 -34.001c22.667 -22 34 -48.667 34 -80v-48h-65v48c0 13.333 -5 25 -15 35c-9.33301 9.33301 -20.666 14 -33.999 14c-12 0 -23.333 -4.66699 -34 -14c-9.33301 -9.33301 -14 -21 -14 -35v-145h129v-65h-129v-65h129v-64h-129
v-211c0 -13.333 4.66699 -24.666 14 -33.999s20.666 -14 33.999 -14s24.666 4.66699 33.999 14c10 10 15 21.333 15 34v49h65v-49c0 -30.667 -11.333 -57.334 -34 -80.001c-22 -22 -48.667 -33 -80 -33c-30.667 0 -57.334 11 -80.001 33c-22 22.667 -33 49.334 -33 80.001
v550c0 31.333 11 58 33 80c22.667 22.667 49.334 34 80.001 34z" />
    <glyph glyph-name="trademark" unicode="&#x2122;" horiz-adv-x="700" 
d="M81 342v370h-81v65h227v-65h-82v-370h-64zM300 342v435h66l96 -311l95 311h67v-435h-65v220l-66 -216h-62l-66 216v-220h-65z" />
    </font>
</defs>
</svg>
